<?xml version="1.0" encoding="utf-8"?>
<!-- Generator: Adobe Illustrator 16.0.0, SVG Export Plug-In . SVG Version: 6.00 Build 0)  -->
<!DOCTYPE svg PUBLIC "-//W3C//DTD SVG 1.1//EN" "http://www.w3.org/Graphics/SVG/1.1/DTD/svg11.dtd">
<svg version="1.1" id="Layer_1" xmlns="http://www.w3.org/2000/svg" xmlns:xlink="http://www.w3.org/1999/xlink" x="0px" y="0px"
	 width="125.917px" height="100px" viewBox="0 0 125.917 100" enable-background="new 0 0 125.917 100" xml:space="preserve">
<g>
	<circle fill="#644A9E" stroke="#FFFFFF" stroke-width="2" stroke-miterlimit="10" cx="58.927" cy="50" r="46.773"/>
	<path fill="#644A9E" stroke="#FFFFFF" stroke-width="2" stroke-miterlimit="10" d="M93.88,19.262
		c17.197,0.64,30.943,14.783,30.943,32.137c0,17.76-14.398,32.158-32.159,32.158c-0.446,0-0.89-0.009-1.331-0.026"/>
</g>
<path fill="#644A9E" stroke="#FFFFFF" stroke-width="2" stroke-miterlimit="10" d="M12.492,49.169
	C5.957,46.115,1.428,39.481,1.428,31.791c0-10.589,8.584-19.173,19.173-19.173c2.978,0,5.798,0.679,8.313,1.891"/>
<g>
	<path fill="#FFFFFF" d="M58.933,42.091c3.821-7.512,15.917-7.51,19.653-0.761c1.42-1.123,2.736-2.471,4.311-3.362
		c7.406-4.188,17.816-0.549,19.273,9.386c0.403,2.752,0.217,5.597,0.221,8.396c0.002,2.43,0.039,4.873-0.197,7.285
		c-0.53,5.418-3.943,9.195-9.288,10.41c-4.007,0.912-7.867,0.473-11.429-1.678c-2.482-1.496-4.063-3.686-4.723-6.707
		c0.59-0.029,1.11-0.078,1.629-0.082c1.59-0.008,3.18-0.027,4.767,0.027c0.381,0.014,0.858,0.213,1.112,0.49
		c1.842,2.027,4.635,2.844,7.092,2.006c2.683-0.914,4.072-2.855,4.229-5.918c0.021-0.436,0.002-0.871,0.002-1.449
		c-5.437,3.488-10.563,3.031-15.591-1.117c0,0.975,0,1.813,0,2.754c-2.108,0-4.062,0.016-6.015-0.023
		c-0.196-0.004-0.494-0.301-0.559-0.518c-0.1-0.344-0.052-0.734-0.052-1.105c-0.002-4.359,0.005-8.723-0.008-13.081
		c-0.007-2.5-1.679-4.158-4.203-4.204c-2.662-0.048-4.683,1.659-4.71,4.104c-0.051,4.326-0.027,8.654-0.034,12.98
		c0,0.568,0,1.135,0,1.854c-1.623,0-3.129-0.004-4.633,0c-2.056,0.002-2.056,0.004-2.056-2.004c0-0.268,0-0.535,0-1.047
		c-3.053,2.918-6.486,4.354-10.563,4.094c-4.056-0.258-7.238-2.111-9.859-5.414c0,1.9,0,3.576,0,5.359
		c-0.486,0.037-0.909,0.096-1.331,0.098c-1.386,0.004-2.775-0.076-4.155,0.004c-0.933,0.057-1.15-0.285-1.146-1.148
		c0.027-5.68-0.007-11.357,0.032-17.036c0.007-0.95-0.225-1.412-1.229-1.253c-1.189,0.188-1.835-0.222-2.109-1.494
		c-0.281-1.303-0.857-2.542-1.388-4.044c1.269,0,2.364-0.065,3.447,0.02c1.025,0.08,1.345-0.244,1.306-1.294
		c-0.084-2.288-0.025-4.58-0.025-6.991c0.385,0.053,0.65,0.045,0.882,0.128c1.653,0.589,3.293,1.218,4.952,1.789
		c0.62,0.214,0.799,0.572,0.785,1.203c-0.04,1.678-0.013,3.358-0.013,5.139c1.129,0,2.129,0,3.454,0
		c-1.373,1.311-2.85,2.163-3.415,3.788c2.862-3.354,6.387-5.252,10.851-5.181C52.657,36.561,56.148,38.539,58.933,42.091z
		 M82.111,49.467c0.031,3.863,3.245,7.128,6.984,7.097c4.057-0.033,7.375-3.275,7.307-7.137c-0.066-3.906-3.365-7.191-7.198-7.169
		C85.287,42.279,82.078,45.539,82.111,49.467z M40.93,49.566c0.006,4.02,3.149,7.209,7.095,7.202
		c3.906-0.012,7.159-3.219,7.173-7.077c0.015-3.76-3.36-7.181-7.099-7.193C44.254,42.486,40.926,45.766,40.93,49.566z"/>
</g>
<g>
	<path fill="#FFFFFF" d="M16.89,29.06c0,0.852,0.018,1.705-0.003,2.555c-0.066,2.731-1.688,4.45-4.35,4.634
		c-2.64,0.182-4.799-1.413-5.077-4.03c-0.216-2.03-0.111-4.097-0.082-6.146c0.003-0.23,0.445-0.655,0.679-0.651
		c2.784,0.037,2.264-0.409,2.308,2.074c0.024,1.315-0.015,2.633,0.013,3.947c0.026,1.2,0.741,1.912,1.858,1.924
		c1.047,0.009,1.666-0.648,1.699-1.912c0.038-1.471,0.01-2.941,0.019-4.413c0.009-1.649,0.013-1.649,1.616-1.639
		c0.194,0.002,0.443-0.08,0.569,0.011c0.284,0.202,0.694,0.474,0.72,0.747c0.087,0.96,0.034,1.934,0.034,2.9
		C16.893,29.06,16.892,29.06,16.89,29.06z"/>
</g>
<g>
	<path fill="#FFFFFF" d="M20.712,29.172c0.604-0.652,1.107-1.167,1.578-1.707c1.432-1.647,2.16-1.873,4.719-1.271
		c-0.766,0.829-1.371,1.657-2.142,2.279c-1.096,0.885-1.112,1.662-0.321,2.797c1.003,1.441,1.798,3.031,2.82,4.793
		c-1.099,0-1.938,0.063-2.758-0.033c-0.293-0.035-0.611-0.413-0.797-0.711c-0.691-1.109-1.333-2.253-1.996-3.387
		c-1.857,0.891-0.767,2.659-1.317,4.134c-0.682,0-1.445,0.063-2.186-0.036c-0.233-0.032-0.581-0.496-0.582-0.766
		c-0.035-4.064-0.015-8.13-0.026-12.195c-0.001-0.646,0.264-0.924,0.904-0.878c0.269,0.019,0.546,0.04,0.81-0.002
		c1.072-0.171,1.325,0.383,1.305,1.326C20.685,25.323,20.712,27.132,20.712,29.172z"/>
</g>
<g>
	<path fill="#FFFFFF" d="M106.952,39.459c-1.103,0.194-2.153,0.445-3.217,0.533c-0.41,0.035-1.024-0.179-1.25-0.492
		c-4.749-6.552-14.229-7.516-20.361-4.142c-0.881,0.483-1.553,0.525-2.405-0.012c-1.742-1.096-3.543-2.1-5.326-3.132
		c-0.603-0.349-1.211-0.707-1.063-1.535c0.152-0.859,0.858-1.043,1.586-1.165c5.388-0.907,10.806-1.667,16.147-2.785
		c2.603-0.544,4.693-0.158,6.931,1.225c4.563,2.819,9.278,5.388,13.935,8.059c0.6,0.347,1.203,0.69,1.027,1.544
		c-0.179,0.876-0.871,1.015-1.607,1.112c-2.741,0.369-2.903,0.605-2.34,3.354c0.026,0.131,0.016,0.324,0.099,0.383
		c1.301,0.928,0.836,2.462,1.243,3.691c0.07,0.206-0.297,0.776-0.537,0.828c-0.785,0.168-1.606,0.218-2.411,0.213
		c-0.242-0.001-0.683-0.326-0.687-0.513c-0.037-1.145-0.349-2.503,0.147-3.388c0.68-1.211,0.108-2.265,0.255-3.366
		C107.126,39.787,107.044,39.688,106.952,39.459z"/>
</g>
</svg>
