<?xml version="1.0" encoding="utf-8"?>
<!-- Generator: Adobe Illustrator 16.0.0, SVG Export Plug-In . SVG Version: 6.00 Build 0)  -->
<!DOCTYPE svg PUBLIC "-//W3C//DTD SVG 1.1//EN" "http://www.w3.org/Graphics/SVG/1.1/DTD/svg11.dtd">
<svg version="1.1" id="Layer_1" xmlns="http://www.w3.org/2000/svg" xmlns:xlink="http://www.w3.org/1999/xlink" x="0px" y="0px"
	 width="180px" height="70px" viewBox="-15 -2.5 180 70" enable-background="new -15 -2.5 180 70" xml:space="preserve">
<g>
	<g>
		<path fill="#634A9D" d="M41.081,43.05c0,0-4.654,13.288-11.617,11.79c0,0-1.412-0.214-2.171-0.721c0,0-3.805-1.975-7.949,0.077
			c0,0-4.14,1.883-6.531-0.425c0,0-6.662-5.293-8.285-15.369c0,0-1.537-8.461,2.99-13.835c0,0,4.441-5.044,10.42-3.163l3.925,1.367
			c0,0,0.684,0.513,2.308-0.087c0,0,4.442-2.051,7.512-1.709c0,0,4.873-0.083,8.199,4.361c0,0-5.468,2.647-4.785,9.486
			C35.096,34.817,34.671,39.768,41.081,43.05z"/>
		<path fill="#634A9D" d="M22.545,20.466c0,0-0.595-8.628,9.137-10.423C31.683,10.043,31.861,20.207,22.545,20.466z"/>
	</g>
	<g>
		<path fill="#634A9D" d="M63.847,39.013c-0.19-0.556-0.387-1.102-0.59-1.645c-0.203-0.541-0.399-1.096-0.59-1.666h-5.944
			c-0.19,0.568-0.383,1.128-0.581,1.675c-0.197,0.549-0.39,1.094-0.58,1.635h-2.661c0.528-1.505,1.028-2.891,1.502-4.162
			c0.473-1.271,0.936-2.478,1.39-3.615c0.453-1.137,0.902-2.221,1.349-3.249c0.447-1.029,0.906-2.043,1.38-3.046h2.441
			c0.475,1.002,0.934,2.017,1.381,3.046s0.897,2.112,1.35,3.249c0.454,1.137,0.92,2.344,1.401,3.615
			c0.48,1.271,0.985,2.66,1.513,4.162L63.847,39.013L63.847,39.013z M59.694,27.662c-0.313,0.717-0.667,1.59-1.066,2.62
			c-0.398,1.029-0.816,2.145-1.249,3.352h4.63c-0.434-1.206-0.854-2.328-1.259-3.372C60.344,29.219,59.992,28.352,59.694,27.662z"/>
		<path fill="#634A9D" d="M77.818,33.713c0,0.813-0.104,1.559-0.314,2.234c-0.209,0.678-0.511,1.259-0.902,1.746
			c-0.395,0.488-0.883,0.867-1.474,1.138c-0.59,0.271-1.257,0.404-2,0.404c-0.501,0-0.962-0.062-1.381-0.183
			c-0.42-0.123-0.766-0.258-1.036-0.406v4.122h-2.457v-14.03c0.501-0.135,1.117-0.264,1.848-0.386
			c0.73-0.122,1.502-0.183,2.314-0.183c0.839,0,1.59,0.129,2.254,0.386c0.661,0.257,1.228,0.626,1.696,1.106
			c0.465,0.481,0.824,1.063,1.075,1.747C77.694,32.093,77.818,32.859,77.818,33.713z M75.301,33.754c0-1.097-0.247-1.951-0.741-2.56
			c-0.496-0.609-1.292-0.914-2.387-0.914c-0.23,0-0.471,0.01-0.721,0.03c-0.25,0.021-0.498,0.065-0.741,0.132v6.072
			c0.216,0.148,0.504,0.288,0.863,0.416c0.358,0.129,0.741,0.192,1.146,0.192c0.895,0,1.547-0.305,1.961-0.915
			C75.094,35.601,75.301,34.783,75.301,33.754z"/>
		<path fill="#634A9D" d="M89.922,33.713c0,0.813-0.104,1.559-0.315,2.234c-0.209,0.678-0.509,1.259-0.903,1.746
			c-0.395,0.488-0.883,0.867-1.47,1.138c-0.592,0.271-1.257,0.404-2.001,0.404c-0.502,0-0.962-0.062-1.381-0.183
			c-0.421-0.123-0.767-0.258-1.036-0.406v4.122h-2.456v-14.03c0.501-0.135,1.115-0.264,1.847-0.386
			c0.729-0.122,1.502-0.183,2.313-0.183c0.84,0,1.592,0.129,2.255,0.386c0.662,0.257,1.229,0.626,1.695,1.106
			c0.467,0.481,0.826,1.063,1.076,1.747C89.796,32.093,89.922,32.859,89.922,33.713z M87.404,33.754c0-1.097-0.248-1.951-0.741-2.56
			c-0.496-0.609-1.292-0.914-2.388-0.914c-0.23,0-0.471,0.01-0.72,0.03c-0.25,0.021-0.497,0.065-0.741,0.132v6.072
			c0.217,0.148,0.505,0.288,0.863,0.416c0.359,0.129,0.74,0.192,1.147,0.192c0.894,0,1.547-0.305,1.959-0.915
			C87.196,35.599,87.404,34.783,87.404,33.754z"/>
		<path fill="#634A9D" d="M100.726,37.104c0.921,0,1.592-0.155,2.011-0.468c0.419-0.31,0.629-0.751,0.629-1.319
			c0-0.339-0.071-0.629-0.213-0.873c-0.142-0.243-0.345-0.463-0.608-0.66c-0.264-0.196-0.586-0.38-0.966-0.548
			c-0.379-0.169-0.813-0.335-1.299-0.499c-0.487-0.177-0.958-0.368-1.41-0.579c-0.454-0.21-0.854-0.471-1.197-0.781
			c-0.346-0.311-0.624-0.684-0.833-1.117c-0.211-0.433-0.314-0.955-0.314-1.563c0-1.272,0.44-2.272,1.319-2.995
			c0.879-0.725,2.079-1.086,3.595-1.086c0.879,0,1.662,0.099,2.346,0.294c0.684,0.195,1.223,0.41,1.614,0.639l-0.792,2.071
			c-0.461-0.257-0.966-0.453-1.514-0.589c-0.548-0.134-1.112-0.203-1.695-0.203c-0.69,0-1.229,0.142-1.614,0.426
			c-0.387,0.284-0.577,0.685-0.577,1.198c0,0.311,0.063,0.579,0.19,0.802c0.129,0.224,0.312,0.423,0.551,0.599
			c0.236,0.177,0.514,0.339,0.83,0.487c0.32,0.15,0.667,0.291,1.047,0.426c0.663,0.244,1.255,0.492,1.777,0.741
			c0.521,0.251,0.96,0.548,1.319,0.894c0.358,0.344,0.633,0.752,0.822,1.218c0.188,0.468,0.285,1.031,0.285,1.696
			c0,1.273-0.451,2.257-1.352,2.954c-0.899,0.699-2.216,1.046-3.948,1.046c-0.583,0-1.113-0.037-1.595-0.111
			c-0.48-0.076-0.908-0.166-1.28-0.275c-0.371-0.108-0.693-0.221-0.964-0.336c-0.271-0.115-0.487-0.219-0.65-0.313l0.752-2.091
			c0.365,0.202,0.859,0.405,1.482,0.607C99.092,37.003,99.845,37.104,100.726,37.104z"/>
		<path fill="#634A9D" d="M108.033,25.591l2.459-0.407v3.209h3.778v2.051h-3.778v4.324c0,0.854,0.134,1.463,0.405,1.83
			c0.271,0.364,0.73,0.548,1.382,0.548c0.446,0,0.842-0.047,1.188-0.143c0.348-0.096,0.62-0.183,0.823-0.265l0.404,1.95
			c-0.284,0.123-0.657,0.247-1.116,0.376s-1.001,0.193-1.624,0.193c-0.758,0-1.393-0.103-1.899-0.306s-0.911-0.498-1.207-0.882
			c-0.299-0.387-0.507-0.854-0.63-1.402c-0.122-0.549-0.185-1.174-0.185-1.878V25.591z"/>
		<path fill="#634A9D" d="M126.005,33.692c0,0.84-0.121,1.604-0.364,2.295c-0.243,0.69-0.59,1.279-1.035,1.768
			c-0.447,0.486-0.985,0.866-1.614,1.137c-0.63,0.271-1.324,0.405-2.081,0.405c-0.759,0-1.449-0.135-2.071-0.405
			c-0.624-0.271-1.157-0.65-1.606-1.137c-0.446-0.488-0.793-1.077-1.044-1.768c-0.251-0.691-0.376-1.455-0.376-2.295
			c0-0.839,0.125-1.602,0.376-2.285c0.251-0.683,0.602-1.269,1.057-1.757c0.451-0.487,0.991-0.863,1.613-1.126
			c0.621-0.264,1.306-0.396,2.05-0.396s1.432,0.132,2.062,0.396c0.63,0.264,1.168,0.64,1.612,1.126
			c0.449,0.488,0.796,1.074,1.047,1.757C125.881,32.093,126.005,32.854,126.005,33.692z M123.489,33.692
			c0-1.057-0.229-1.892-0.681-2.509c-0.452-0.617-1.087-0.924-1.898-0.924c-0.813,0-1.445,0.309-1.899,0.924
			c-0.452,0.616-0.68,1.452-0.68,2.509c0,1.07,0.228,1.916,0.68,2.538c0.454,0.622,1.086,0.934,1.899,0.934
			c0.812,0,1.446-0.312,1.898-0.934S123.489,34.763,123.489,33.692z"/>
		<path fill="#634A9D" d="M134.597,30.606c-0.203-0.067-0.484-0.138-0.843-0.213c-0.356-0.075-0.773-0.112-1.249-0.112
			c-0.271,0-0.557,0.027-0.862,0.081c-0.306,0.055-0.519,0.102-0.64,0.142v8.508h-2.457V28.9c0.474-0.176,1.066-0.342,1.775-0.498
			c0.711-0.156,1.499-0.233,2.366-0.233c0.162,0,0.351,0.01,0.568,0.03c0.216,0.021,0.433,0.048,0.649,0.081
			c0.217,0.035,0.427,0.075,0.63,0.122c0.203,0.047,0.364,0.091,0.487,0.132L134.597,30.606z"/>
		<path fill="#634A9D" d="M136.14,33.754c0-0.934,0.14-1.754,0.417-2.459c0.278-0.703,0.648-1.289,1.106-1.756
			c0.459-0.467,0.987-0.82,1.584-1.056s1.205-0.355,1.827-0.355c1.461,0,2.603,0.454,3.421,1.36c0.82,0.907,1.229,2.261,1.229,4.062
			c0,0.135-0.002,0.289-0.011,0.455c-0.007,0.171-0.017,0.322-0.029,0.457h-7.008c0.069,0.853,0.37,1.514,0.905,1.979
			c0.535,0.469,1.309,0.703,2.324,0.703c0.596,0,1.142-0.055,1.635-0.164c0.495-0.107,0.884-0.225,1.167-0.345l0.327,2.011
			c-0.136,0.068-0.322,0.139-0.559,0.213c-0.236,0.076-0.508,0.143-0.812,0.203c-0.306,0.061-0.635,0.111-0.985,0.152
			c-0.353,0.041-0.711,0.062-1.077,0.062c-0.934,0-1.745-0.138-2.437-0.417c-0.689-0.277-1.26-0.662-1.707-1.156
			s-0.777-1.077-0.993-1.748C136.249,35.286,136.14,34.553,136.14,33.754z M143.268,32.657c0-0.339-0.047-0.66-0.141-0.964
			c-0.095-0.305-0.234-0.569-0.417-0.792c-0.183-0.224-0.406-0.399-0.669-0.528c-0.266-0.128-0.579-0.193-0.944-0.193
			c-0.38,0-0.712,0.071-0.995,0.213c-0.284,0.142-0.524,0.329-0.721,0.559c-0.195,0.231-0.348,0.495-0.456,0.792
			c-0.108,0.299-0.184,0.603-0.223,0.914H143.268z"/>
	</g>
</g>
</svg>
