<?xml version="1.0" encoding="utf-8"?>
<!-- Generator: Adobe Illustrator 16.0.0, SVG Export Plug-In . SVG Version: 6.00 Build 0)  -->
<!DOCTYPE svg PUBLIC "-//W3C//DTD SVG 1.1//EN" "http://www.w3.org/Graphics/SVG/1.1/DTD/svg11.dtd">
<svg version="1.1" id="Layer_1" xmlns="http://www.w3.org/2000/svg" xmlns:xlink="http://www.w3.org/1999/xlink" x="0px" y="0px"
	 width="60px" height="60px" viewBox="0 0 60 60" enable-background="new 0 0 60 60" xml:space="preserve">
<path fill="#FFFFFF" d="M42.265,12.472H17.738c-2.618,0-4.738,2.235-4.738,4.993v25.069c0,2.756,2.12,4.994,4.738,4.994h24.527
	c2.615,0,4.735-2.238,4.735-4.994V17.465C47,14.707,44.88,12.472,42.265,12.472z M36.834,17.553c0,0,0.089-0.961,0.962-0.961h4.722
	c0,0,0.876,0.085,0.876,0.873c0,0.787,0,4.896,0,4.896s-0.177,0.741-0.745,0.741s-4.938,0-4.938,0s-0.876-0.042-0.876-0.915V17.553z
	 M30.054,23.336c3.708,0,6.711,3.004,6.711,6.713c0,3.704-3.003,6.707-6.711,6.707c-3.706,0-6.711-3.003-6.711-6.707
	C23.343,26.34,26.348,23.336,30.054,23.336z M43.476,42.388c0,0-0.062,1.019-1.02,1.019H17.5c0,0-0.974-0.183-0.974-0.972
	c0-0.792,0.035-15.183,0.035-15.183h3.313c0,0-1.888,6.483,3.383,10.83c0,0,2.817,2.561,6.984,2.493c0,0,5.058-0.215,7.803-3.707
	c0,0,3.516-4.129,2.216-9.697h3.216V42.388z"/>
</svg>
