<?xml version="1.0" encoding="utf-8"?>
<!-- Generator: Adobe Illustrator 16.0.0, SVG Export Plug-In . SVG Version: 6.00 Build 0)  -->
<!DOCTYPE svg PUBLIC "-//W3C//DTD SVG 1.1//EN" "http://www.w3.org/Graphics/SVG/1.1/DTD/svg11.dtd">
<svg version="1.1" id="Layer_1" xmlns="http://www.w3.org/2000/svg" xmlns:xlink="http://www.w3.org/1999/xlink" x="0px" y="0px"
	 width="50px" height="50px" viewBox="5 5 50 50" enable-background="new 5 5 50 50" xml:space="preserve">
<g>
	<path fill="#FFFFFF" d="M52,14.74c0,2.617-2.009,4.742-4.49,4.742H12.487C10.009,19.482,8,17.358,8,14.74l0,0
		C8,12.124,10.009,10,12.487,10H47.51C49.991,10,52,12.124,52,14.74L52,14.74z"/>
	<path fill="#FFFFFF" d="M52,30.08c0,2.618-2.009,4.739-4.49,4.739H12.487C10.009,34.818,8,32.697,8,30.08l0,0
		c0-2.618,2.009-4.743,4.487-4.743H47.51C49.991,25.336,52,27.462,52,30.08L52,30.08z"/>
	<path fill="#FFFFFF" d="M52,45.265C52,47.879,49.991,50,47.51,50H12.487C10.009,50,8,47.879,8,45.265l0,0
		c0-2.622,2.009-4.744,4.487-4.744H47.51C49.991,40.521,52,42.641,52,45.265L52,45.265z"/>
</g>
</svg>
