<?xml version="1.0" encoding="utf-8"?>
<!-- Generator: Adobe Illustrator 16.0.0, SVG Export Plug-In . SVG Version: 6.00 Build 0)  -->
<!DOCTYPE svg PUBLIC "-//W3C//DTD SVG 1.1//EN" "http://www.w3.org/Graphics/SVG/1.1/DTD/svg11.dtd">
<svg version="1.1" id="Layer_1" xmlns="http://www.w3.org/2000/svg" xmlns:xlink="http://www.w3.org/1999/xlink" x="0px" y="0px"
	 width="180px" height="70px" viewBox="-15 -2.5 180 70" enable-background="new -15 -2.5 180 70" xml:space="preserve">
<g>
	<g>
		<path fill="#FFFFFF" d="M10.878,42.924c0,1.838,1.738,1.731,1.738,1.731h2.375c0,0,0,3.424,0,5.745
			c0,2.317,2.358,2.345,2.358,2.345c2.549,0.026,2.51-2.185,2.51-2.185v-5.799h4.03V50.4c0,0,0.095,2.453,2.441,2.453
			c2.347,0,2.455-2.453,2.455-2.453v-5.799c0,0,1.174,0,2.44,0c1.282,0,1.619-1.622,1.619-1.622V24.907H10.878
			C10.878,24.907,10.878,41.063,10.878,42.924z"/>
		<path fill="#FFFFFF" d="M39.077,37.689c0,0,0-10.031,0-10.382c0-0.362-0.015-2.4-2.399-2.4c-2.374,0-2.375,2.374-2.375,2.374
			s0,9.601,0,10.3c0,0.704,0.067,2.343,2.543,2.343C39.322,39.926,39.077,37.689,39.077,37.689z"/>
		<path fill="#FFFFFF" d="M9.275,27.308c0-0.362-0.013-2.4-2.387-2.4c-2.387,0-2.388,2.375-2.388,2.375s0,9.601,0,10.3
			c0,0.703,0.066,2.342,2.541,2.342c2.475,0,2.234-2.234,2.234-2.234S9.275,27.659,9.275,27.308z"/>
		<path fill="#FFFFFF" d="M27.168,15.6l1.906-2.817c0.325-0.46-0.078-0.573-0.078-0.573c-0.27-0.212-0.484,0.169-0.484,0.169
			l-1.974,2.924c-1.379-0.561-2.914-0.871-4.549-0.898c-1.676-0.012-3.285,0.304-4.725,0.877c-0.584-0.849-2.114-3.05-2.228-3.114
			c-0.133-0.079-0.325,0.079-0.325,0.079c-0.348,0.268-0.178,0.402-0.178,0.402l2.002,2.96c-3.074,1.479-5.27,4.238-5.692,7.614
			h21.981C32.43,19.837,30.253,17.075,27.168,15.6z M17.176,20.283c-0.679,0-1.226-0.546-1.226-1.224
			c0-0.678,0.546-1.229,1.226-1.229c0.679,0,1.229,0.551,1.229,1.229C18.404,19.736,17.854,20.283,17.176,20.283z M26.589,20.283
			c-0.677,0-1.225-0.546-1.225-1.224c0-0.678,0.548-1.229,1.225-1.229c0.682,0,1.23,0.551,1.23,1.229
			C27.819,19.736,27.271,20.283,26.589,20.283z"/>
	</g>
	<g>
		<path fill="#FFFFFF" d="M58.911,24.997c1.992,0,3.515,0.359,4.583,1.091c1.055,0.717,1.589,1.858,1.589,3.392
			c0,0.809-0.139,1.498-0.422,2.065c-0.281,0.571-0.694,1.054-1.236,1.4c-0.542,0.371-1.207,0.64-1.98,0.805
			c-0.775,0.165-1.665,0.259-2.671,0.259h-1.244v4.822h-2.489V25.334c0.587-0.132,1.225-0.218,1.927-0.268
			C57.669,25.017,58.326,24.997,58.911,24.997z M59.094,27.147c-0.63,0-1.156,0.028-1.565,0.062v4.654h1.211
			c1.194,0,2.123-0.162,2.764-0.487c0.641-0.35,0.969-0.969,0.969-1.911c0-0.454-0.083-0.825-0.261-1.122
			c-0.165-0.311-0.409-0.542-0.708-0.719c-0.299-0.166-0.666-0.29-1.081-0.363C60.009,27.19,59.57,27.147,59.094,27.147z"/>
		<path fill="#FFFFFF" d="M70.826,39.019c-0.706-0.011-1.29-0.075-1.76-0.219c-0.471-0.144-0.837-0.363-1.114-0.635
			c-0.275-0.271-0.473-0.596-0.588-0.998c-0.118-0.405-0.164-0.854-0.164-1.375V23.893l2.382-0.399v11.851
			c0,0.286,0.032,0.512,0.071,0.724c0.05,0.186,0.131,0.373,0.25,0.512c0.124,0.139,0.28,0.225,0.485,0.31
			c0.204,0.06,0.468,0.13,0.776,0.161L70.826,39.019z"/>
		<path fill="#FFFFFF" d="M76.539,28.238c0.797,0,1.467,0.105,1.995,0.292c0.542,0.199,0.983,0.476,1.298,0.842
			c0.327,0.354,0.553,0.783,0.691,1.297c0.138,0.49,0.207,1.045,0.207,1.668v6.251c-0.364,0.09-0.92,0.194-1.668,0.284
			c-0.746,0.116-1.582,0.189-2.523,0.189c-0.621,0-1.185-0.075-1.692-0.197c-0.52-0.123-0.954-0.303-1.312-0.568
			c-0.373-0.267-0.652-0.597-0.858-1.016c-0.204-0.422-0.3-0.946-0.3-1.579c0-0.585,0.12-1.096,0.345-1.505
			c0.227-0.409,0.545-0.731,0.943-0.992c0.386-0.26,0.849-0.435,1.363-0.553c0.525-0.117,1.07-0.162,1.635-0.162
			c0.265,0,0.541,0.014,0.828,0.04c0.287,0.051,0.604,0.097,0.937,0.188v-0.397c0-0.277-0.04-0.542-0.106-0.798
			c-0.067-0.255-0.172-0.485-0.346-0.667c-0.16-0.18-0.376-0.327-0.645-0.439c-0.273-0.11-0.613-0.153-1.021-0.153
			c-0.553,0-1.055,0.031-1.52,0.123c-0.464,0.063-0.835,0.165-1.122,0.276l-0.304-1.949c0.311-0.097,0.747-0.209,1.32-0.321
			C75.268,28.294,75.887,28.238,76.539,28.238z M76.738,37.157c0.742,0,1.3-0.031,1.687-0.123v-2.642
			c-0.132-0.059-0.327-0.091-0.581-0.124c-0.243-0.031-0.52-0.073-0.83-0.073c-0.266,0-0.522,0.042-0.791,0.073
			c-0.272,0.032-0.521,0.118-0.737,0.204c-0.215,0.11-0.396,0.258-0.528,0.463c-0.12,0.182-0.187,0.43-0.187,0.717
			c0,0.563,0.17,0.958,0.525,1.161C75.647,37.041,76.13,37.157,76.738,37.157z"/>
		<path fill="#FFFFFF" d="M91.834,28.498c-1.047,3.915-2.283,7.476-3.711,10.661c-0.266,0.609-0.537,1.1-0.814,1.545
			c-0.276,0.421-0.579,0.755-0.91,1.032c-0.355,0.277-0.744,0.491-1.165,0.619c-0.42,0.102-0.894,0.178-1.448,0.178
			c-0.378,0-0.746-0.032-1.1-0.123c-0.37-0.089-0.645-0.159-0.82-0.259l0.431-1.92c0.473,0.2,0.95,0.277,1.404,0.277
			c0.634,0,1.105-0.146,1.469-0.439c0.338-0.292,0.664-0.742,0.932-1.375c-0.769-1.46-1.486-3.029-2.18-4.731
			c-0.698-1.728-1.324-3.539-1.856-5.464h2.548c0.134,0.553,0.291,1.153,0.474,1.796c0.209,0.653,0.403,1.29,0.637,1.961
			c0.209,0.67,0.454,1.336,0.71,2c0.255,0.664,0.511,1.266,0.74,1.829c0.444-1.159,0.815-2.432,1.193-3.74
			c0.375-1.333,0.697-2.606,0.996-3.846H91.834z"/>
		<path fill="#FFFFFF" d="M101.704,36.987c0.885,0,1.543-0.175,1.951-0.473c0.411-0.297,0.627-0.724,0.627-1.276
			c0-0.319-0.081-0.626-0.22-0.845c-0.137-0.245-0.323-0.47-0.584-0.652c-0.26-0.18-0.566-0.378-0.943-0.537
			c-0.377-0.16-0.798-0.317-1.261-0.473c-0.487-0.189-0.938-0.367-1.374-0.56c-0.436-0.218-0.829-0.476-1.178-0.772
			c-0.325-0.299-0.597-0.67-0.813-1.09c-0.193-0.421-0.301-0.923-0.301-1.521c0-1.238,0.425-2.209,1.302-2.911
			c0.851-0.702,2.004-1.052,3.487-1.052c0.852,0,1.623,0.091,2.294,0.285c0.645,0.18,1.173,0.388,1.561,0.622l-0.781,2.011
			c-0.441-0.254-0.919-0.435-1.454-0.568c-0.537-0.132-1.086-0.199-1.65-0.199c-0.676,0-1.204,0.137-1.586,0.415
			c-0.357,0.276-0.561,0.657-0.561,1.166c0,0.299,0.075,0.562,0.203,0.777c0.103,0.217,0.297,0.411,0.512,0.577
			c0.239,0.191,0.511,0.345,0.813,0.488c0.328,0.144,0.655,0.281,1.034,0.415c0.627,0.219,1.224,0.466,1.714,0.715
			c0.516,0.25,0.94,0.536,1.302,0.861c0.335,0.351,0.604,0.75,0.778,1.196c0.201,0.447,0.278,0.996,0.278,1.65
			c0,1.24-0.434,2.199-1.3,2.879c-0.866,0.682-2.167,1.008-3.848,1.008c-0.562,0-1.087-0.029-1.544-0.114
			c-0.483-0.061-0.898-0.157-1.244-0.269c-0.371-0.087-0.678-0.201-0.943-0.317c-0.267-0.117-0.488-0.2-0.643-0.3l0.749-2.041
			c0.341,0.186,0.834,0.398,1.431,0.584C100.105,36.881,100.854,36.987,101.704,36.987z"/>
		<path fill="#FFFFFF" d="M108.828,25.766l2.383-0.386v3.118h3.685v1.984h-3.685v4.221c0,0.829,0.133,1.413,0.397,1.779
			c0.267,0.367,0.708,0.538,1.352,0.538c0.43,0,0.82-0.063,1.146-0.139c0.325-0.099,0.594-0.17,0.806-0.26l0.397,1.902
			c-0.275,0.123-0.649,0.222-1.089,0.349c-0.441,0.128-0.974,0.205-1.595,0.205c-0.729,0-1.359-0.106-1.838-0.293
			c-0.504-0.212-0.899-0.497-1.187-0.878c-0.288-0.358-0.479-0.831-0.601-1.367c-0.123-0.512-0.172-1.137-0.172-1.82V25.766z"/>
		<path fill="#FFFFFF" d="M126.317,33.644c0,0.819-0.121,1.579-0.365,2.254c-0.243,0.675-0.569,1.244-0.999,1.708
			c-0.432,0.487-0.96,0.84-1.587,1.104c-0.601,0.266-1.279,0.398-2.006,0.398c-0.756,0-1.431-0.133-2.026-0.398
			s-1.122-0.617-1.553-1.104c-0.457-0.464-0.783-1.033-1.033-1.708c-0.249-0.675-0.35-1.435-0.35-2.254s0.101-1.55,0.35-2.221
			c0.25-0.668,0.58-1.235,1.042-1.698c0.434-0.476,0.965-0.85,1.56-1.098c0.596-0.26,1.265-0.391,2.009-0.391
			c0.717,0,1.391,0.131,1.992,0.391c0.626,0.248,1.13,0.622,1.585,1.098c0.431,0.463,0.759,1.03,1.007,1.698
			C126.194,32.096,126.317,32.824,126.317,33.644z M123.863,33.644c0-1.016-0.23-1.831-0.667-2.423
			c-0.436-0.617-1.065-0.911-1.836-0.911c-0.799,0-1.428,0.294-1.863,0.911c-0.437,0.592-0.668,1.407-0.668,2.423
			c0,1.053,0.231,1.877,0.668,2.472c0.436,0.621,1.064,0.919,1.863,0.919c0.771,0,1.4-0.298,1.836-0.919
			C123.633,35.521,123.863,34.696,123.863,33.644z"/>
		<path fill="#FFFFFF" d="M134.66,30.661c-0.186-0.08-0.461-0.136-0.821-0.221c-0.335-0.059-0.742-0.113-1.194-0.113
			c-0.265,0-0.544,0.021-0.863,0.088c-0.292,0.043-0.486,0.106-0.609,0.139v8.277h-2.382v-9.842
			c0.451-0.166,1.024-0.336,1.715-0.483c0.692-0.149,1.47-0.224,2.31-0.224c0.154,0,0.33,0.008,0.553,0.024
			c0.196,0.016,0.42,0.05,0.617,0.077c0.223,0.041,0.414,0.073,0.627,0.123c0.187,0.05,0.341,0.084,0.463,0.129L134.66,30.661z"/>
		<path fill="#FFFFFF" d="M136.164,33.719c0-0.92,0.136-1.724,0.407-2.409c0.271-0.686,0.641-1.252,1.081-1.699
			c0.441-0.447,0.962-0.79,1.537-1.028c0.575-0.226,1.185-0.346,1.781-0.346c1.413,0,2.548,0.45,3.325,1.323
			c0.803,0.883,1.204,2.211,1.204,3.946c0,0.133-0.004,0.28-0.01,0.463c-0.005,0.161-0.013,0.307-0.022,0.439h-6.831
			c0.078,0.829,0.369,1.48,0.896,1.927c0.499,0.448,1.267,0.685,2.25,0.685c0.576,0,1.109-0.068,1.603-0.154
			c0.469-0.112,0.854-0.229,1.131-0.351l0.309,1.951c-0.133,0.079-0.307,0.136-0.545,0.22c-0.213,0.061-0.479,0.139-0.797,0.187
			c-0.292,0.074-0.604,0.114-0.959,0.146c-0.33,0.059-0.692,0.074-1.032,0.074c-0.919,0-1.691-0.135-2.365-0.407
			c-0.677-0.271-1.229-0.652-1.661-1.121c-0.455-0.494-0.77-1.058-0.967-1.717C136.276,35.214,136.164,34.479,136.164,33.719z
			 M143.117,32.645c0-0.319-0.063-0.651-0.137-0.943c-0.102-0.293-0.237-0.553-0.406-0.756c-0.197-0.229-0.399-0.393-0.659-0.521
			c-0.261-0.128-0.562-0.179-0.928-0.179c-0.352,0-0.69,0.057-0.968,0.194c-0.276,0.139-0.491,0.313-0.697,0.546
			c-0.182,0.232-0.328,0.493-0.439,0.78c-0.112,0.287-0.17,0.58-0.229,0.878H143.117z"/>
	</g>
</g>
</svg>
