<?xml version="1.0" encoding="utf-8"?>
<!-- Generator: Adobe Illustrator 16.0.0, SVG Export Plug-In . SVG Version: 6.00 Build 0)  -->
<!DOCTYPE svg PUBLIC "-//W3C//DTD SVG 1.1//EN" "http://www.w3.org/Graphics/SVG/1.1/DTD/svg11.dtd">
<svg version="1.1" id="Layer_1" xmlns="http://www.w3.org/2000/svg" xmlns:xlink="http://www.w3.org/1999/xlink" x="0px" y="0px"
	 width="60px" height="60px" viewBox="0 0 60 60" enable-background="new 0 0 60 60" xml:space="preserve">
<g>
	<path fill="#FFFFFF" d="M39.047,38.936h-7.179c-5.105,0-5.922-2.172-5.922-4.182c0-0.957,0.065-2.527,0.126-4.457h11.992
		c1.794,0,5.217-0.707,5.217-3.86c0-3.151-1.579-5.217-3.695-5.217H26.221c-0.014-4.545-0.323-9.074-4.945-9.074
		c-1.914,0-3.465,0.754-4.12,2.627c-0.858,2.459-0.632,5.344-0.619,7.904c0.002,0.488,0.003,0.977,0.007,1.465
		c0.004,1.678,0.041,3.368,0.047,5.055c0.005,1.816,0.007,3.632,0.007,5.445c0,10.166,9.623,13.045,11.466,13.045
		c1.847,0,9.077,0.166,10.382,0.166c1.305,0,5.054-0.334,5.054-3.973C43.5,40.24,40.841,38.936,39.047,38.936z"/>
</g>
</svg>
