<?xml version="1.0" encoding="utf-8"?>
<!-- Generator: Adobe Illustrator 16.0.0, SVG Export Plug-In . SVG Version: 6.00 Build 0)  -->
<!DOCTYPE svg PUBLIC "-//W3C//DTD SVG 1.1//EN" "http://www.w3.org/Graphics/SVG/1.1/DTD/svg11.dtd">
<svg version="1.1" id="Layer_1" xmlns="http://www.w3.org/2000/svg" xmlns:xlink="http://www.w3.org/1999/xlink" x="0px" y="0px"
	 width="40px" height="40px" viewBox="0 0 40 40" enable-background="new 0 0 40 40" xml:space="preserve">
<g>
	<path fill="#907CD6" d="M23.188,8.381c-0.638-1.156-2.092-1.576-3.247-0.939L8.666,13.66c-1.155,0.637-1.575,2.09-0.938,3.246
		l7.578,13.745c0.637,1.154,2.09,1.574,3.246,0.938l11.276-6.218c1.154-0.638,1.576-2.091,0.938-3.247l-2.984-5.416l-4.819,2.658
		c-0.804,0.442-1.815,0.149-2.26-0.654c-0.443-0.803-0.15-1.816,0.653-2.259l4.818-2.658L23.188,8.381z M20.258,9.112l-10.35,5.706
		c-0.559,0.309-1.127,0.466-1.583,0.469c0.246-0.385,0.682-0.781,1.241-1.09l10.35-5.707c0.56-0.309,1.127-0.465,1.584-0.468
		C21.254,8.407,20.818,8.803,20.258,9.112z"/>
	<circle fill="#907CD6" cx="22.152" cy="17.913" r="0.932"/>
</g>
</svg>
