<?xml version="1.0" encoding="utf-8"?>
<!-- Generator: Adobe Illustrator 16.0.0, SVG Export Plug-In . SVG Version: 6.00 Build 0)  -->
<!DOCTYPE svg PUBLIC "-//W3C//DTD SVG 1.1//EN" "http://www.w3.org/Graphics/SVG/1.1/DTD/svg11.dtd">
<svg version="1.1" id="Layer_1" xmlns="http://www.w3.org/2000/svg" xmlns:xlink="http://www.w3.org/1999/xlink" x="0px" y="0px"
	 width="100px" height="100px" viewBox="0 0 100 100" enable-background="new 0 0 100 100" xml:space="preserve">
<circle fill="none" cx="50" cy="50" r="47.5"/>
<g>
	<path fill="#93B95C" d="M64.792,20.415l10.951,21.763c0.029,0.06,0.057,0.12,0.082,0.181c0.487,1.192-0.018,2.579-1.189,3.168
		l-47.34,23.82c-1.171,0.589-2.585,0.168-3.253-0.934c-0.033-0.056-0.065-0.114-0.096-0.173L12.997,46.477
		c-0.013-0.025-0.025-0.051-0.037-0.077c-0.562-1.215-0.062-2.666,1.144-3.272l47.34-23.82c1.205-0.606,2.668-0.143,3.309,1.032
		C64.767,20.364,64.779,20.389,64.792,20.415z"/>
	<path fill="#C0DC8E" d="M64.752,20.339c-0.641-1.175-2.104-1.638-3.309-1.032l-7.27,3.658L21.373,39.47l-7.27,3.658
		c-1.206,0.606-1.705,2.057-1.144,3.272c0.012,0.026,0.024,0.051,0.037,0.077l3.005,5.972l4.941,9.819v0.001l3.005,5.972
		c0.013,0.024,0.026,0.05,0.04,0.074c0,0.001,0,0.002,0,0.002c0.018,0.032,0.037,0.064,0.055,0.097
		c0.002,0.003,0.004,0.006,0.006,0.009c0.003,0.005,0.006,0.01,0.01,0.016c0.018,0.028,0.037,0.058,0.056,0.086
		c0.006,0.009,0.013,0.018,0.019,0.026c0.017,0.024,0.034,0.048,0.051,0.071c0.008,0.011,0.017,0.021,0.025,0.032
		c0.016,0.021,0.032,0.041,0.049,0.062c0.01,0.012,0.021,0.023,0.031,0.035c0.016,0.019,0.031,0.036,0.047,0.054
		c0.011,0.013,0.023,0.025,0.035,0.037c0.015,0.017,0.031,0.032,0.046,0.048c0.013,0.013,0.026,0.025,0.039,0.038
		c0.015,0.015,0.03,0.028,0.046,0.043c0.014,0.013,0.028,0.024,0.042,0.037c0.015,0.013,0.031,0.026,0.046,0.039
		c0.015,0.013,0.03,0.024,0.045,0.036c0.016,0.012,0.031,0.023,0.046,0.035c0.016,0.012,0.032,0.023,0.048,0.035
		c0.016,0.011,0.031,0.021,0.047,0.032c0.017,0.012,0.034,0.022,0.05,0.033c0.016,0.01,0.031,0.02,0.047,0.029
		c0.018,0.011,0.035,0.021,0.052,0.031c0.016,0.009,0.032,0.018,0.048,0.026c0.018,0.011,0.036,0.02,0.054,0.029
		c0.016,0.008,0.033,0.017,0.049,0.024c0.019,0.009,0.037,0.018,0.055,0.026c0.017,0.008,0.033,0.015,0.05,0.021
		c0.019,0.009,0.038,0.017,0.056,0.023c0.017,0.007,0.034,0.014,0.051,0.021c0.019,0.007,0.038,0.014,0.057,0.021
		c0.017,0.006,0.034,0.012,0.051,0.018c0.02,0.007,0.039,0.013,0.058,0.019c0.018,0.005,0.035,0.01,0.053,0.015
		c0.02,0.006,0.039,0.011,0.059,0.016c0.018,0.005,0.036,0.009,0.053,0.013c0.02,0.005,0.04,0.009,0.06,0.013
		c0.018,0.004,0.036,0.008,0.054,0.011c0.02,0.004,0.04,0.007,0.059,0.01c0.019,0.003,0.037,0.006,0.056,0.008
		c0.02,0.003,0.04,0.006,0.059,0.008c0.019,0.002,0.038,0.004,0.057,0.005c0.02,0.002,0.039,0.004,0.059,0.005
		c0.019,0.001,0.038,0.002,0.057,0.003c0.02,0,0.039,0.001,0.059,0.001c0.019,0.001,0.039,0.001,0.058,0c0.02,0,0.039,0,0.059-0.001
		c0.02,0,0.039-0.002,0.059-0.003s0.039-0.002,0.058-0.003c0.02-0.002,0.04-0.004,0.06-0.006c0.019-0.003,0.038-0.004,0.058-0.007
		c0.02-0.002,0.04-0.006,0.06-0.009c0.019-0.003,0.038-0.005,0.056-0.009c0.021-0.004,0.042-0.008,0.062-0.012
		c0.018-0.004,0.037-0.008,0.055-0.012c0.021-0.005,0.042-0.01,0.063-0.016c0.018-0.004,0.036-0.009,0.054-0.014
		c0.021-0.006,0.042-0.013,0.064-0.02c0.017-0.005,0.034-0.01,0.051-0.016c0.022-0.008,0.045-0.016,0.067-0.023
		c0.016-0.006,0.031-0.012,0.047-0.018c0.025-0.01,0.05-0.021,0.075-0.03c0.013-0.006,0.026-0.011,0.039-0.017
		c0.037-0.017,0.074-0.034,0.111-0.053h0l0,0l7.27-3.658l32.8-16.504l7.27-3.658c0.037-0.019,0.074-0.038,0.11-0.059
		c0.012-0.006,0.022-0.014,0.034-0.021c0.023-0.014,0.048-0.028,0.07-0.042c0.014-0.009,0.027-0.018,0.041-0.027
		c0.021-0.014,0.041-0.027,0.061-0.041c0.014-0.01,0.027-0.021,0.042-0.031c0.019-0.014,0.037-0.027,0.055-0.041
		c0.014-0.011,0.027-0.022,0.042-0.034c0.017-0.014,0.034-0.028,0.051-0.042c0.014-0.012,0.026-0.024,0.04-0.036
		c0.017-0.015,0.032-0.029,0.048-0.043c0.014-0.013,0.026-0.026,0.04-0.039c0.015-0.015,0.029-0.029,0.044-0.044
		c0.013-0.013,0.025-0.027,0.038-0.041c0.014-0.015,0.028-0.03,0.042-0.046c0.012-0.014,0.024-0.028,0.036-0.042
		c0.013-0.016,0.025-0.031,0.038-0.047c0.012-0.015,0.023-0.03,0.034-0.045c0.013-0.016,0.024-0.032,0.036-0.048
		c0.012-0.015,0.021-0.031,0.032-0.046c0.012-0.017,0.023-0.033,0.034-0.049c0.01-0.016,0.02-0.032,0.03-0.048
		c0.01-0.017,0.021-0.034,0.03-0.051c0.01-0.016,0.02-0.033,0.028-0.05c0.01-0.017,0.019-0.034,0.028-0.051
		c0.009-0.017,0.018-0.034,0.025-0.051c0.009-0.018,0.018-0.035,0.025-0.052c0.009-0.018,0.017-0.035,0.024-0.053
		c0.007-0.018,0.015-0.035,0.022-0.053c0.008-0.018,0.015-0.036,0.021-0.054c0.007-0.018,0.014-0.036,0.021-0.054
		c0.006-0.018,0.013-0.037,0.019-0.055c0.006-0.018,0.012-0.036,0.018-0.054c0.006-0.019,0.012-0.037,0.017-0.056
		c0.005-0.018,0.01-0.037,0.015-0.055s0.01-0.038,0.015-0.057c0.004-0.019,0.008-0.037,0.012-0.056
		c0.005-0.019,0.008-0.038,0.012-0.057s0.007-0.038,0.01-0.057s0.006-0.038,0.009-0.057s0.005-0.039,0.007-0.058
		c0.003-0.019,0.005-0.038,0.007-0.057c0.002-0.02,0.003-0.04,0.004-0.059c0.001-0.019,0.003-0.038,0.004-0.057
		c0.001-0.02,0.001-0.04,0.001-0.06c0.001-0.019,0.001-0.038,0.001-0.056c0-0.021-0.001-0.041-0.001-0.062
		c0-0.019-0.001-0.037-0.002-0.055c-0.001-0.021-0.003-0.042-0.004-0.063c-0.001-0.018-0.003-0.036-0.004-0.054
		c-0.002-0.022-0.005-0.043-0.008-0.065c-0.002-0.017-0.004-0.034-0.006-0.051c-0.004-0.022-0.008-0.045-0.012-0.068
		c-0.003-0.016-0.006-0.032-0.009-0.048c-0.004-0.024-0.01-0.048-0.015-0.072c-0.004-0.015-0.007-0.029-0.011-0.044
		c-0.006-0.026-0.013-0.052-0.021-0.077c-0.003-0.013-0.007-0.025-0.01-0.039c-0.009-0.028-0.018-0.056-0.027-0.084
		c-0.003-0.01-0.007-0.02-0.01-0.03c-0.012-0.032-0.023-0.064-0.036-0.096c-0.002-0.006-0.004-0.012-0.007-0.018
		c-0.001-0.003-0.002-0.006-0.003-0.009c-0.015-0.035-0.029-0.069-0.045-0.103c0,0,0-0.001-0.001-0.001
		c-0.012-0.026-0.023-0.051-0.036-0.077l0,0l-3.005-5.972l-4.941-9.82l-3.005-5.972C64.779,20.389,64.767,20.364,64.752,20.339z
		 M70.681,37.912c-0.724,0.748-1.379,1.612-1.937,2.581c-1.152,2.006-1.707,4.152-1.706,6.146l-34.32,17.27
		c-1.601-1.189-3.655-2.023-5.953-2.293c-1.332-0.156-2.628-0.109-3.84,0.111l-5.308-10.549c0.899-0.841,1.71-1.854,2.378-3.017
		c1.155-2.011,1.709-4.162,1.706-6.16l34.311-17.264c1.603,1.193,3.66,2.03,5.963,2.3c1.11,0.131,2.194,0.119,3.227-0.016
		L70.681,37.912z"/>
	<path fill="#C0DC8E" d="M41.432,54.545c-0.346-0.078-0.689-0.174-1.031-0.286c-2.784-0.921-5.043-2.87-6.361-5.489
		c-2.721-5.408-0.536-12.021,4.872-14.742c5.408-2.721,12.021-0.535,14.742,4.873c1.318,2.62,1.537,5.596,0.617,8.38
		c-0.921,2.784-2.87,5.044-5.49,6.362C46.483,54.799,43.909,55.109,41.432,54.545z M46.196,33.457
		c-2.326-0.529-4.842-0.285-7.134,0.869c-2.54,1.278-4.431,3.469-5.323,6.169c-0.892,2.7-0.68,5.585,0.598,8.125
		c1.278,2.541,3.469,4.43,6.168,5.323c2.7,0.893,5.586,0.68,8.126-0.599c2.54-1.277,4.431-3.468,5.322-6.168
		c0.893-2.7,0.681-5.586-0.598-8.126l0,0C51.871,36.099,49.191,34.137,46.196,33.457z"/>
	<circle fill="#C0DC8E" cx="43.847" cy="43.835" r="9.456"/>
	<path fill="#93B95C" d="M45.647,49.686c-1.23,0.55-2.524,0.865-3.882,0.941l-1.376-2.734c0.8,0.004,1.628-0.074,2.484-0.233
		s1.566-0.38,2.132-0.665c0.467-0.235,0.78-0.463,0.94-0.685c0.161-0.222,0.175-0.464,0.042-0.728
		c-0.092-0.181-0.247-0.295-0.467-0.343c-0.221-0.047-0.553-0.059-0.998-0.035c-0.445,0.025-1.035,0.081-1.769,0.167
		c-0.827,0.093-1.536,0.086-2.126-0.02c-0.59-0.105-1.083-0.308-1.478-0.608c-0.395-0.3-0.742-0.747-1.041-1.34
		c-0.456-0.906-0.521-1.76-0.196-2.564c0.325-0.803,1.039-1.558,2.143-2.265l-0.92-1.828l1.705-0.858l0.911,1.812
		c1.123-0.489,2.359-0.774,3.709-0.855l0.201,2.841c-1.407,0.061-2.572,0.324-3.495,0.788c-0.439,0.221-0.721,0.43-0.846,0.626
		c-0.125,0.197-0.134,0.4-0.029,0.608c0.091,0.181,0.231,0.299,0.419,0.352c0.188,0.053,0.479,0.072,0.87,0.058
		s0.919-0.068,1.581-0.161c1.352-0.171,2.409-0.123,3.169,0.145s1.347,0.811,1.759,1.628c0.464,0.922,0.549,1.819,0.254,2.69
		c-0.295,0.871-0.968,1.657-2.019,2.357l1.108,2.204l-1.704,0.857L45.647,49.686z"/>
</g>
<path fill="#93B95C" d="M79.62,43.5l-0.027,24.363c0,0.067-0.003,0.133-0.008,0.198c-0.103,1.284-1.178,2.295-2.489,2.293
	l-52.995-0.061c-1.312-0.002-2.384-1.015-2.483-2.299c-0.005-0.065-0.008-0.132-0.008-0.198l0.028-24.363
	c0-0.028,0.001-0.057,0.002-0.085c0.046-1.338,1.146-2.408,2.495-2.406l52.995,0.061c1.35,0.001,2.446,1.074,2.489,2.412
	C79.62,43.443,79.62,43.471,79.62,43.5z"/>
<path fill="#C0DC8E" d="M79.619,43.415c-0.043-1.337-1.14-2.41-2.489-2.412l-8.139-0.009l-36.719-0.042l-8.138-0.009
	c-1.35-0.001-2.449,1.068-2.495,2.406c-0.001,0.028-0.002,0.057-0.002,0.085l-0.007,6.685l-0.013,10.994l0,0l-0.008,6.685
	c0,0.028,0,0.057,0.002,0.085c0,0.001,0,0.001,0,0.002c0.001,0.037,0.003,0.074,0.006,0.111c0,0.003,0,0.006,0.001,0.01
	c0,0.006,0.001,0.012,0.002,0.019c0.003,0.034,0.006,0.067,0.011,0.102c0.001,0.011,0.003,0.021,0.005,0.032
	c0.004,0.029,0.008,0.058,0.013,0.087c0.003,0.014,0.006,0.026,0.008,0.04c0.005,0.025,0.01,0.051,0.016,0.076
	c0.003,0.016,0.007,0.031,0.011,0.046c0.006,0.023,0.011,0.047,0.018,0.069c0.004,0.017,0.01,0.033,0.015,0.049
	c0.006,0.021,0.013,0.043,0.02,0.063c0.006,0.018,0.012,0.034,0.018,0.052c0.007,0.02,0.014,0.04,0.022,0.059
	c0.007,0.018,0.014,0.035,0.021,0.053c0.007,0.019,0.015,0.037,0.023,0.056c0.008,0.018,0.016,0.035,0.024,0.053
	s0.017,0.035,0.025,0.053s0.018,0.035,0.027,0.053c0.009,0.017,0.018,0.033,0.027,0.05c0.01,0.018,0.02,0.034,0.03,0.052
	c0.01,0.017,0.02,0.032,0.029,0.048c0.01,0.018,0.021,0.034,0.033,0.051c0.01,0.016,0.02,0.031,0.03,0.047
	c0.012,0.017,0.023,0.032,0.035,0.049c0.011,0.015,0.022,0.029,0.033,0.044c0.012,0.017,0.025,0.032,0.038,0.048
	c0.011,0.015,0.022,0.029,0.034,0.043c0.013,0.016,0.026,0.031,0.04,0.046c0.012,0.014,0.024,0.027,0.036,0.041
	c0.014,0.015,0.028,0.029,0.042,0.045c0.013,0.013,0.025,0.025,0.038,0.038c0.015,0.015,0.029,0.028,0.044,0.043
	c0.013,0.013,0.026,0.024,0.04,0.037c0.015,0.014,0.03,0.027,0.045,0.04c0.014,0.012,0.028,0.023,0.042,0.035
	c0.016,0.014,0.031,0.026,0.047,0.038c0.015,0.012,0.029,0.023,0.044,0.034c0.016,0.012,0.032,0.024,0.048,0.035
	c0.015,0.012,0.03,0.021,0.046,0.032c0.017,0.012,0.033,0.022,0.05,0.033c0.016,0.011,0.032,0.021,0.048,0.03
	c0.017,0.011,0.034,0.021,0.051,0.03c0.017,0.01,0.033,0.02,0.05,0.028c0.017,0.01,0.035,0.02,0.052,0.028s0.035,0.018,0.052,0.026
	c0.017,0.009,0.035,0.017,0.052,0.025c0.018,0.009,0.036,0.016,0.054,0.023c0.018,0.009,0.035,0.016,0.053,0.023
	c0.019,0.008,0.037,0.015,0.056,0.021c0.018,0.007,0.036,0.014,0.054,0.021c0.02,0.007,0.039,0.013,0.058,0.02
	c0.018,0.006,0.036,0.012,0.054,0.018c0.02,0.006,0.041,0.011,0.061,0.017c0.018,0.005,0.036,0.01,0.054,0.015
	c0.021,0.005,0.042,0.009,0.063,0.015c0.018,0.003,0.036,0.008,0.054,0.012c0.021,0.004,0.044,0.007,0.066,0.012
	c0.018,0.002,0.035,0.006,0.053,0.009c0.023,0.003,0.047,0.006,0.071,0.009c0.017,0.002,0.033,0.004,0.05,0.006
	c0.027,0.003,0.054,0.004,0.081,0.006c0.014,0.001,0.027,0.003,0.042,0.003c0.041,0.003,0.082,0.003,0.123,0.004h0.001l0,0
	l8.138,0.009l36.719,0.043l8.138,0.009c0.042,0,0.083-0.001,0.124-0.003c0.014,0,0.027-0.002,0.04-0.003
	c0.028-0.002,0.056-0.003,0.083-0.006c0.016-0.002,0.032-0.004,0.049-0.006c0.023-0.003,0.048-0.006,0.071-0.009
	c0.018-0.003,0.034-0.006,0.052-0.009c0.022-0.004,0.045-0.008,0.067-0.012c0.018-0.003,0.035-0.008,0.052-0.012
	c0.022-0.004,0.044-0.009,0.065-0.015c0.018-0.004,0.034-0.009,0.052-0.014c0.021-0.006,0.042-0.011,0.063-0.018
	c0.018-0.005,0.035-0.011,0.053-0.017c0.02-0.006,0.04-0.013,0.06-0.02c0.018-0.006,0.035-0.013,0.053-0.02
	c0.02-0.007,0.039-0.015,0.058-0.022c0.018-0.007,0.034-0.014,0.052-0.021c0.019-0.009,0.037-0.017,0.056-0.024
	c0.017-0.008,0.034-0.017,0.051-0.025c0.018-0.009,0.036-0.018,0.054-0.026c0.017-0.009,0.033-0.018,0.05-0.027
	c0.018-0.01,0.035-0.019,0.053-0.028c0.016-0.01,0.032-0.021,0.048-0.03c0.018-0.01,0.034-0.021,0.051-0.031
	c0.016-0.01,0.031-0.021,0.048-0.031c0.016-0.011,0.032-0.022,0.048-0.033c0.016-0.012,0.031-0.022,0.047-0.034
	c0.015-0.012,0.03-0.023,0.046-0.035c0.015-0.012,0.03-0.024,0.045-0.036c0.015-0.013,0.029-0.025,0.044-0.037
	c0.015-0.013,0.029-0.026,0.044-0.039c0.014-0.013,0.027-0.025,0.042-0.039c0.014-0.013,0.027-0.026,0.042-0.04
	c0.013-0.014,0.026-0.027,0.04-0.041c0.013-0.014,0.026-0.028,0.04-0.042c0.013-0.015,0.025-0.028,0.038-0.043
	s0.025-0.029,0.038-0.044c0.012-0.015,0.024-0.029,0.036-0.045c0.012-0.015,0.023-0.03,0.035-0.046
	c0.012-0.015,0.023-0.03,0.035-0.046s0.022-0.031,0.033-0.047c0.012-0.017,0.022-0.032,0.032-0.049
	c0.011-0.016,0.021-0.032,0.031-0.048c0.011-0.017,0.021-0.034,0.031-0.051c0.01-0.017,0.019-0.033,0.028-0.049
	c0.01-0.018,0.02-0.035,0.028-0.053c0.009-0.017,0.018-0.033,0.026-0.051s0.018-0.036,0.026-0.055
	c0.009-0.017,0.016-0.033,0.023-0.051c0.009-0.019,0.017-0.038,0.024-0.058c0.008-0.017,0.014-0.033,0.021-0.05
	c0.008-0.021,0.016-0.041,0.022-0.062c0.006-0.017,0.012-0.032,0.018-0.049c0.008-0.021,0.014-0.044,0.021-0.065
	c0.005-0.016,0.01-0.031,0.015-0.047c0.007-0.023,0.013-0.048,0.019-0.071c0.004-0.015,0.008-0.029,0.011-0.044
	c0.006-0.025,0.012-0.052,0.017-0.078c0.003-0.013,0.006-0.026,0.008-0.039c0.005-0.028,0.01-0.058,0.014-0.087
	c0.002-0.011,0.004-0.021,0.005-0.032c0.005-0.033,0.009-0.067,0.012-0.102c0-0.006,0.001-0.013,0.002-0.019
	c0-0.003,0.001-0.007,0.001-0.01c0.003-0.037,0.005-0.074,0.006-0.111c0-0.001,0-0.001,0-0.002c0.001-0.028,0.002-0.057,0.002-0.085
	l0,0l0.008-6.685l0.013-10.993L79.62,43.5C79.62,43.471,79.62,43.443,79.619,43.415z M76.995,61.773
	c-0.982,0.342-1.957,0.818-2.892,1.433c-1.933,1.271-3.395,2.938-4.292,4.719l-38.421-0.044c-0.893-1.783-2.351-3.453-4.281-4.729
	c-1.119-0.739-2.298-1.281-3.479-1.63l0.014-11.809c1.182-0.346,2.362-0.885,3.482-1.623c1.937-1.274,3.401-2.945,4.298-4.73
	l38.409,0.044c0.893,1.787,2.354,3.461,4.287,4.74c0.933,0.616,1.906,1.094,2.888,1.439L76.995,61.773z"/>
<path fill="#C0DC8E" d="M43.389,63.447c-0.273-0.227-0.537-0.467-0.791-0.721c-2.071-2.076-3.21-4.834-3.207-7.767
	c0.007-6.054,4.938-10.973,10.991-10.966c6.054,0.007,10.973,4.938,10.967,10.992c-0.004,2.933-1.149,5.688-3.226,7.759
	c-2.075,2.072-4.834,3.211-7.767,3.207C47.784,65.948,45.347,65.066,43.389,63.447z M57.144,46.766
	c-1.838-1.521-4.194-2.436-6.761-2.439c-2.844-0.003-5.519,1.101-7.531,3.109c-2.013,2.008-3.124,4.681-3.126,7.524
	c-0.003,2.843,1.101,5.518,3.109,7.53c2.008,2.014,4.68,3.124,7.524,3.127s5.518-1.101,7.531-3.109
	c2.013-2.009,3.123-4.681,3.126-7.524l0,0C61.02,51.682,59.51,48.723,57.144,46.766z"/>
<circle fill="#C0DC8E" cx="50.37" cy="54.973" r="9.456"/>
<path fill="#93B95C" d="M49.342,61.007c-1.347-0.063-2.643-0.365-3.891-0.907l0.004-3.061c0.713,0.363,1.486,0.666,2.322,0.91
	s1.57,0.365,2.203,0.367c0.522,0,0.905-0.063,1.148-0.188s0.364-0.336,0.365-0.631c0-0.203-0.088-0.375-0.263-0.517
	s-0.467-0.302-0.875-0.48c-0.409-0.179-0.96-0.395-1.654-0.647c-0.78-0.29-1.41-0.614-1.889-0.976
	c-0.479-0.359-0.828-0.762-1.046-1.209c-0.218-0.445-0.326-1-0.325-1.664c0.001-1.014,0.328-1.807,0.98-2.377
	c0.651-0.571,1.63-0.923,2.933-1.057l0.003-2.045l1.908,0.002l-0.002,2.027c1.223,0.069,2.455,0.372,3.696,0.908l-1.101,2.627
	c-1.284-0.58-2.442-0.869-3.475-0.871c-0.492,0-0.838,0.059-1.038,0.179s-0.3,0.296-0.3,0.53c-0.001,0.202,0.071,0.37,0.216,0.502
	c0.145,0.133,0.395,0.281,0.751,0.443c0.356,0.164,0.851,0.354,1.483,0.568c1.284,0.457,2.206,0.977,2.765,1.558
	s0.838,1.33,0.836,2.246c-0.001,1.032-0.329,1.871-0.984,2.516s-1.61,1.043-2.864,1.195l-0.003,2.468l-1.908-0.003L49.342,61.007z"
	/>
</svg>
