<?xml version="1.0" encoding="utf-8"?>
<!-- Generator: Adobe Illustrator 16.0.0, SVG Export Plug-In . SVG Version: 6.00 Build 0)  -->
<!DOCTYPE svg PUBLIC "-//W3C//DTD SVG 1.1//EN" "http://www.w3.org/Graphics/SVG/1.1/DTD/svg11.dtd">
<svg version="1.1" id="Layer_1" xmlns="http://www.w3.org/2000/svg" xmlns:xlink="http://www.w3.org/1999/xlink" x="0px" y="0px"
	 width="100px" height="100px" viewBox="0 0 100 100" enable-background="new 0 0 100 100" xml:space="preserve">
<circle fill="none" cx="50" cy="50" r="47.5"/>
<path fill="#F64500" d="M21.819,59.117c0,4.969,4.04,9.009,9.007,9.009c1.895,0,3.651-0.599,5.102-1.603v9.707h31.226V46.212H35.929
	v5.5c-1.451-1.006-3.207-1.599-5.102-1.599C25.859,50.113,21.819,54.154,21.819,59.117z M25.424,59.117
	c0-2.977,2.429-5.402,5.403-5.402c2.384,0,4.392,1.563,5.102,3.708v3.39c-0.71,2.146-2.718,3.713-5.102,3.713
	C27.853,64.525,25.424,62.097,25.424,59.117z"/>
<polygon fill="#1A165E" points="79.032,74.589 22.38,74.589 22.38,75.495 28.653,77.636 28.653,80.077 72.76,80.077 72.76,77.636 
	79.032,75.495 "/>
<path fill="#CBA71F" d="M47.422,9.845c3.078,12.922-6.467,7.519,0.924,26.785C45.268,24.177,55.735,22.767,47.422,9.845z"/>
<path fill="#CBA71F" d="M53.482,16.771c3.078,12.922-6.466,7.519,0.924,26.785C51.328,31.103,61.796,29.693,53.482,16.771z"/>
</svg>
