<?xml version="1.0" encoding="utf-8"?>
<!-- Generator: Adobe Illustrator 16.0.0, SVG Export Plug-In . SVG Version: 6.00 Build 0)  -->
<!DOCTYPE svg PUBLIC "-//W3C//DTD SVG 1.1//EN" "http://www.w3.org/Graphics/SVG/1.1/DTD/svg11.dtd">
<svg version="1.1" id="Layer_1" xmlns="http://www.w3.org/2000/svg" xmlns:xlink="http://www.w3.org/1999/xlink" x="0px" y="0px"
	 width="100px" height="100px" viewBox="0 0 100 100" enable-background="new 0 0 100 100" xml:space="preserve">
<circle fill="none" cx="50" cy="50" r="47.5"/>
<polygon fill="#4A4A4B" points="76.26,67.086 28.92,67.086 28.92,40.627 70.064,40.627 "/>
<polygon fill="#2D2E2D" points="49.487,67.086 22.795,67.086 28.915,40.627 49.487,40.627 "/>
<polygon fill="#616262" points="14.062,38.808 14.062,40.055 49.311,51.758 88.528,40.122 88.528,38.808 "/>
<polygon fill="#30302F" points="14.062,38.827 49.207,50.494 88.528,38.827 51.295,30.76 "/>
<polygon fill="#616262" points="75.253,57.422 76.094,57.422 76.094,42.515 50.853,37.404 50.686,38.228 75.253,43.202 "/>
<ellipse fill="#616262" cx="49.487" cy="37.78" rx="3.885" ry="1.179"/>
<path fill="#FFD161" d="M73.515,59.827v-1.366c0-1.198,0.972-2.17,2.17-2.17s2.171,0.972,2.171,2.17v1.366H73.515z"/>
<path fill="#FFD161" d="M72.348,62.718c0.333,0.455,3.337,0.411,3.337,0.411s3.087,0.026,3.351-0.473
	c0.263-0.499-1.698-2.88-1.698-2.88l-1.698-2.881l-1.646,2.911C73.993,59.807,72.016,62.263,72.348,62.718z"/>
</svg>
