<?xml version="1.0" encoding="utf-8"?>
<!-- Generator: Adobe Illustrator 16.0.0, SVG Export Plug-In . SVG Version: 6.00 Build 0)  -->
<!DOCTYPE svg PUBLIC "-//W3C//DTD SVG 1.1//EN" "http://www.w3.org/Graphics/SVG/1.1/DTD/svg11.dtd">
<svg version="1.1" id="Layer_1" xmlns="http://www.w3.org/2000/svg" xmlns:xlink="http://www.w3.org/1999/xlink" x="0px" y="0px"
	 width="100px" height="100px" viewBox="0 0 100 100" enable-background="new 0 0 100 100" xml:space="preserve">
<circle fill="none" cx="50" cy="50" r="47.5"/>
<path fill="#8E8D8D" d="M74.212,77.272H26.505c-2.626,0-4.775-2.148-4.775-4.775V32.531c0-4.26,3.485-7.745,7.744-7.745h41.77
	c4.26,0,7.745,3.485,7.745,7.745v39.966C78.988,75.124,76.839,77.272,74.212,77.272z"/>
<path fill="#F1F2F2" d="M74.212,75.845H26.505c-2.626,0-4.775-2.148-4.775-4.775V31.914c0-4.26,3.485-7.745,7.744-7.745h41.77
	c4.26,0,7.745,3.485,7.745,7.745v39.155C78.988,73.696,76.839,75.845,74.212,75.845z"/>
<path fill="#1C75BC" d="M78.988,37.601H21.729v-5.687c0-4.26,3.485-7.745,7.744-7.745h41.77c4.26,0,7.745,3.485,7.745,7.745V37.601z
	"/>
<ellipse fill="#131212" cx="30.314" cy="40.578" rx="1.143" ry="1.192"/>
<ellipse fill="#131212" cx="30.314" cy="32.076" rx="1.143" ry="1.192"/>
<ellipse fill="#131212" cx="70.361" cy="40.578" rx="1.144" ry="1.192"/>
<ellipse fill="#131212" cx="70.361" cy="32.076" rx="1.144" ry="1.192"/>
<path fill="#C4C4C4" d="M30.342,41.254h-0.061c-0.537,0-0.978-0.439-0.978-0.978V32.35c0-0.538,0.44-0.979,0.978-0.979h0.061
	c0.537,0,0.978,0.44,0.978,0.979v7.927C31.319,40.814,30.879,41.254,30.342,41.254z"/>
<path fill="#C4C4C4" d="M70.392,41.254h-0.06c-0.538,0-0.979-0.439-0.979-0.978V32.35c0-0.538,0.44-0.979,0.979-0.979h0.06
	c0.538,0,0.978,0.44,0.978,0.979v7.927C71.369,40.814,70.93,41.254,70.392,41.254z"/>
<path fill="#BBBBBB" d="M74.157,61.458L60.613,75.699c0,0,0.513-2.507,0.517-4.083c0.003-1.001-0.202-1.873-0.271-3.311
	c-0.193-4.032,2.142-5.059,3.243-5.656c1.69-0.915,4.463-0.237,6.135-0.347C70.943,62.258,73.631,62.14,74.157,61.458z"/>
<path fill="#E7E6E6" d="M78.645,60.563L60.613,75.699c0,0,0.896-2.878,1.073-4.724c0.112-1.172-0.041-2.218,0.031-3.909
	c0.205-4.744,3.157-5.681,4.563-6.254c2.156-0.88,5.455,0.229,7.501,0.292C74.646,61.132,77.929,61.301,78.645,60.563z"/>
<rect x="27.639" y="45.116" fill="#C4C4C4" width="7.638" height="4.951"/>
<rect x="27.639" y="53.929" fill="#C4C4C4" width="7.638" height="4.952"/>
<rect x="39.793" y="53.929" fill="#262262" width="7.638" height="4.952"/>
<rect x="51.947" y="53.929" fill="#C4C4C4" width="7.638" height="4.952"/>
<rect x="63.867" y="53.929" fill="#C4C4C4" width="7.638" height="4.952"/>
<rect x="27.639" y="62.742" fill="#C4C4C4" width="7.638" height="4.952"/>
<rect x="39.793" y="62.742" fill="#C4C4C4" width="7.638" height="4.952"/>
<rect x="51.947" y="62.742" fill="#C4C4C4" width="7.638" height="4.952"/>
<rect x="39.793" y="45.116" fill="#C4C4C4" width="7.638" height="4.951"/>
<rect x="51.947" y="45.116" fill="#C4C4C4" width="7.638" height="4.951"/>
<rect x="64.102" y="45.116" fill="#C4C4C4" width="7.638" height="4.951"/>
</svg>
