<?xml version="1.0" encoding="utf-8"?>
<!-- Generator: Adobe Illustrator 16.0.0, SVG Export Plug-In . SVG Version: 6.00 Build 0)  -->
<!DOCTYPE svg PUBLIC "-//W3C//DTD SVG 1.1//EN" "http://www.w3.org/Graphics/SVG/1.1/DTD/svg11.dtd">
<svg version="1.1" id="Layer_1" xmlns="http://www.w3.org/2000/svg" xmlns:xlink="http://www.w3.org/1999/xlink" x="0px" y="0px"
	 width="100px" height="100px" viewBox="0 0 100 100" enable-background="new 0 0 100 100" xml:space="preserve">
<circle fill="none" cx="50" cy="50" r="47.5"/>
<g>
	<rect x="27.501" y="20.547" fill="#ED1C24" width="44.997" height="61.542"/>
	<rect x="29.531" y="22.51" fill="#F1F2F2" width="40.938" height="56.983"/>
	<path fill="#F59327" d="M58.61,20.563h-6.933c0.248-0.312,0.421-0.689,0.484-1.11c0.197-1.294-0.698-2.505-1.99-2.7
		c-1.294-0.197-2.505,0.695-2.7,1.989c-0.103,0.674,0.093,1.326,0.485,1.823H41.45l0.001,4.882l17.16-0.001V20.563z M50.034,17.659
		c0.794,0.121,1.341,0.861,1.221,1.655c-0.12,0.794-0.863,1.341-1.656,1.221c-0.794-0.121-1.339-0.862-1.221-1.655
		C48.5,18.085,49.239,17.54,50.034,17.659z"/>
	<path fill="#848484" d="M64.724,36.203c0.004,0.401-0.134,0.728-0.308,0.729l-15.493,0.133c-0.173,0.001-0.316-0.322-0.32-0.724
		l0,0c-0.003-0.401,0.136-0.727,0.308-0.729l15.494-0.132C64.578,35.478,64.721,35.802,64.724,36.203L64.724,36.203z"/>
	<path fill="#848484" d="M64.742,38.424c0.005,0.401-0.157,0.729-0.361,0.73l-18.119,0.154c-0.202,0.002-0.37-0.321-0.373-0.724l0,0
		c-0.004-0.401,0.158-0.728,0.36-0.73l18.12-0.154C64.573,37.699,64.738,38.023,64.742,38.424L64.742,38.424z"/>
	<path fill="#848484" d="M64.99,67.451c0.003,0.38-0.16,0.691-0.361,0.693L46.509,68.3c-0.203,0.002-0.37-0.307-0.373-0.689l0,0
		c-0.004-0.382,0.158-0.695,0.361-0.696l18.121-0.154C64.819,66.758,64.987,67.067,64.99,67.451L64.99,67.451z"/>
	<path fill="#848484" d="M65.012,69.848c0.003,0.383-0.16,0.694-0.363,0.696L46.53,70.697c-0.204,0.004-0.371-0.305-0.375-0.688l0,0
		c-0.003-0.383,0.159-0.694,0.363-0.696l18.118-0.155C64.841,69.156,65.006,69.465,65.012,69.848L65.012,69.848z"/>
	<path fill="#848484" d="M64.859,52.22c0.003,0.321-0.158,0.584-0.361,0.585l-18.12,0.156c-0.203,0.001-0.37-0.259-0.373-0.58l0,0
		c-0.002-0.323,0.159-0.586,0.364-0.588l18.119-0.153C64.69,51.638,64.857,51.898,64.859,52.22L64.859,52.22z"/>
	<path fill="#848484" d="M64.88,54.383c0.003,0.322-0.139,0.582-0.314,0.586l-15.683,0.134c-0.176,0.001-0.319-0.258-0.323-0.581
		l0,0c-0.003-0.322,0.138-0.584,0.313-0.585l15.683-0.135C64.731,53.801,64.878,54.062,64.88,54.383L64.88,54.383z"/>
	<path fill="#848484" d="M64.841,49.908c0.003,0.321-0.136,0.584-0.31,0.585l-15.528,0.132c-0.174,0.003-0.317-0.257-0.32-0.58l0,0
		c-0.002-0.322,0.137-0.584,0.31-0.585l15.527-0.133C64.693,49.327,64.838,49.586,64.841,49.908L64.841,49.908z"/>
	<path fill="#364A5E" d="M44.294,34.101l-1.057-1.069c-0.1-0.102-0.265-0.103-0.369-0.002l-4.146,4.1l-2.177-2.122
		c-0.101-0.102-0.265-0.104-0.369-0.003l-1.072,1.053c-0.104,0.102-0.104,0.267-0.003,0.369l3.441,3.354
		c0.1,0.103,0.266,0.104,0.367,0.003l0.771-0.756c0.001-0.002,0.004-0.002,0.005-0.004l0.115-0.114l0.183-0.18
		c0.002-0.002,0.003-0.004,0.005-0.006l4.304-4.255C44.395,34.37,44.396,34.205,44.294,34.101z"/>
	<path fill="#364A5E" d="M44.433,50.249l-1.057-1.069c-0.101-0.102-0.268-0.103-0.369-0.003l-4.147,4.1l-2.176-2.121
		c-0.101-0.104-0.266-0.104-0.369-0.003l-1.072,1.055c-0.102,0.1-0.103,0.265-0.003,0.366l3.441,3.354
		c0.099,0.104,0.266,0.105,0.368,0.003l0.771-0.756c0.001-0.001,0.003-0.002,0.004-0.003l0.115-0.113l0.183-0.182
		c0.003-0.001,0.004-0.004,0.006-0.006l4.304-4.253C44.533,50.515,44.534,50.351,44.433,50.249z"/>
	<path fill="#364A5E" d="M44.565,65.713l-1.057-1.069c-0.102-0.104-0.267-0.104-0.368-0.002l-4.148,4.099l-2.176-2.121
		c-0.101-0.104-0.266-0.104-0.368-0.003l-1.073,1.054c-0.102,0.101-0.103,0.266-0.003,0.367l3.441,3.354
		c0.1,0.103,0.265,0.104,0.368,0.003l0.77-0.757c0.002-0.001,0.003-0.002,0.004-0.003l0.116-0.115l0.182-0.18
		c0.003-0.002,0.004-0.004,0.007-0.006l4.303-4.255C44.665,65.979,44.665,65.813,44.565,65.713z"/>
</g>
</svg>
