<?xml version="1.0" encoding="utf-8"?>
<!-- Generator: Adobe Illustrator 16.0.0, SVG Export Plug-In . SVG Version: 6.00 Build 0)  -->
<!DOCTYPE svg PUBLIC "-//W3C//DTD SVG 1.1//EN" "http://www.w3.org/Graphics/SVG/1.1/DTD/svg11.dtd">
<svg version="1.1" id="Layer_1" xmlns="http://www.w3.org/2000/svg" xmlns:xlink="http://www.w3.org/1999/xlink" x="0px" y="0px"
	 width="100px" height="100px" viewBox="0 0 100 100" enable-background="new 0 0 100 100" xml:space="preserve">
<circle fill="none" cx="50" cy="50" r="47.5"/>
<rect x="36.091" y="31.139" fill="#404D52" width="0" height="0.9"/>
<rect x="63.565" y="31.138" fill="#404D52" width="0" height="0.901"/>
<circle fill="#404D52" cx="49.964" cy="31.068" r="10.442"/>
<path fill="#404D52" d="M35.778,55.655v21.092c0,2.459-1.994,4.452-4.453,4.452l0,0c-2.459,0-4.453-1.993-4.453-4.452V55.722
	c0-2.402,1.876-4.421,4.276-4.516c1.294-0.051,2.476,0.459,3.321,1.305C35.277,53.318,35.778,54.431,35.778,55.655z"/>
<path fill="#404D52" d="M34.403,58.427h5.15v-15.41c0,0-10.594-0.393-12.679,11.493v3.917H34.403z"/>
<path fill="#404D52" d="M73.128,55.723v21.023c0,2.46-1.994,4.453-4.453,4.453l0,0c-2.46,0-4.453-1.993-4.453-4.453V55.655
	c0-1.225,0.5-2.337,1.308-3.145c0.847-0.846,2.027-1.355,3.321-1.305C71.251,51.301,73.128,53.32,73.128,55.723z"/>
<path fill="#404D52" d="M65.597,58.427h-5.189v-15.41c0,0,10.595-0.393,12.68,11.493v3.917H65.597z"/>
<path fill="#404D52" d="M62.596,81.314H37.228V45.303c0-1.258,1.087-2.275,2.346-2.275h20.782c1.259,0,2.24,1.017,2.24,2.275V81.314
	z"/>
<polygon fill="#00AEEF" points="51.398,51.511 49.98,51.511 48.563,51.511 46.978,72.806 49.98,75.779 52.983,72.807 "/>
<polygon fill="#00AEEF" points="49.98,45.278 47.52,47.094 48.479,50.109 49.98,50.109 51.482,50.109 52.441,47.094 "/>
</svg>
