<?xml version="1.0" encoding="utf-8"?>
<!-- Generator: Adobe Illustrator 16.0.0, SVG Export Plug-In . SVG Version: 6.00 Build 0)  -->
<!DOCTYPE svg PUBLIC "-//W3C//DTD SVG 1.1//EN" "http://www.w3.org/Graphics/SVG/1.1/DTD/svg11.dtd">
<svg version="1.1" id="Layer_1" xmlns="http://www.w3.org/2000/svg" xmlns:xlink="http://www.w3.org/1999/xlink" x="0px" y="0px"
	 width="100px" height="100px" viewBox="0 0 100 100" enable-background="new 0 0 100 100" xml:space="preserve">
<circle fill="#A3DDF2" cx="-84.323" cy="2.055" r="32.177"/>
<circle fill="none" cx="50" cy="50" r="47.5"/>
<circle fill="#324F61" cx="50.098" cy="50" r="35.411"/>
<path fill="#FFDE17" d="M36.955,36.692c0.179,0.181,0.366,0.211,0.59,0.284c0.225,0.072,0.095,0.18,0.247,0.284
	c0,0,0.127,0.052,0.241-0.007c0.113-0.059,0.184-0.281,0.259-0.464c0.078-0.182,0.051-0.485-0.001-0.529
	c-0.05-0.046-0.352,0.008-0.634-0.014c-0.289-0.026-0.407-0.122-0.614-0.102C36.84,36.167,36.778,36.513,36.955,36.692z
	 M35.209,35.808c0.044,0.09,0.082-0.086,0.235-0.15c0.153-0.065-0.067,0.176,0.022,0.348c0,0,0.075,0.032,0.163,0.013
	c0.094-0.018,0.119-0.132,0.109-0.287c-0.009-0.153,0.111-0.2,0.233-0.246c0.117-0.048,0.068-0.166,0.083-0.36
	c0.016-0.195,0.112-0.503,0.102-0.608c-0.014-0.109-0.239,0.178-0.368,0.288c-0.128,0.111-0.395,0.422-0.514,0.609
	C35.161,35.605,35.162,35.718,35.209,35.808z M36.191,34.225c0.044-0.022,0.023-0.126,0.053-0.229
	c0.035-0.101,0.17-0.332,0.149-0.49c-0.026-0.16-0.155,0.037-0.222,0.101c-0.069,0.062-0.163,0.099-0.235,0.206
	c-0.071,0.11,0.109,0.215,0.187,0.42C36.123,34.232,36.147,34.248,36.191,34.225z M42.247,38.894
	c0.149,0.069,0.122-0.093,0.236-0.123c0,0,0.193-0.013,0.442,0.027c0.254,0.043,0.47,0.158,0.685,0.105
	c0.219-0.055,0.229-0.219,0.146-0.388c-0.089-0.168-0.327-0.076-0.471-0.073c-0.138,0.001-0.138-0.085-0.255-0.055
	c-0.113,0.029-0.295,0.038-0.391,0.019c-0.099-0.022-0.263-0.065-0.382-0.019c-0.118,0.047,0.053,0.185-0.063,0.292
	C42.074,38.781,42.096,38.827,42.247,38.894z M43.756,36.279c0,0,0.08,0.019,0.131-0.024c0.05-0.04,0.105-0.155,0.064-0.292
	c-0.042-0.135-0.155-0.132-0.304-0.172c-0.146-0.036-0.065,0.178-0.105,0.298c-0.037,0.118-0.15,0.122-0.086,0.188
	C43.52,36.344,43.588,36.18,43.756,36.279z M43.387,36.584c-0.183,0.094-0.104,0.225-0.003,0.358c0,0,0.079-0.01,0.138-0.042
	c0.055-0.027,0.143-0.075,0.12-0.233C43.616,36.51,43.565,36.492,43.387,36.584z M42.085,37.891
	c0.003-0.104,0.054-0.199-0.126-0.163c-0.184,0.033-0.129,0.193-0.052,0.295C41.908,38.023,42.083,37.993,42.085,37.891z
	 M42.971,37.503c-0.07-0.136-0.249,0.012-0.201,0.161c0,0,0.022,0.101,0.164,0.041C43.077,37.646,43.041,37.635,42.971,37.503z
	 M43.769,37.905c0,0,0.146-0.018,0.138-0.144c-0.009-0.126-0.03-0.14-0.188-0.116C43.559,37.668,43.624,37.822,43.769,37.905z
	 M44.152,37.492c-0.088,0.017-0.05,0.067,0.021,0.173c0,0,0.114,0.056,0.137-0.07C44.33,37.473,44.245,37.473,44.152,37.492z
	 M44.175,37.837c-0.091-0.039-0.161,0.043-0.091,0.263c0,0,0.115-0.001,0.227-0.117C44.422,37.869,44.269,37.876,44.175,37.837z
	 M44.414,38.242c0,0,0.02,0.064,0.065,0.155c0.045,0.089,0.292-0.023,0.36-0.188c0.072-0.166-0.129-0.219-0.237-0.265
	C44.496,37.901,44.378,38.09,44.414,38.242z M44.093,38.426c0,0,0.119,0.094,0.267-0.009c0.148-0.104-0.03-0.145-0.099-0.195
	C44.193,38.172,44.064,38.339,44.093,38.426z M47.383,39.242c0.109-0.114,0.246-0.269,0.385-0.359
	c0.141-0.088,0.363-0.071,0.366-0.231c0.003-0.16,0.286-0.25,0.355-0.284c0.067-0.035-0.088-0.084-0.246-0.146
	c-0.163-0.058-0.279,0.102-0.415,0.172c-0.134,0.07-0.242,0.113-0.33-0.029c-0.088-0.14-0.248,0.072-0.22,0.155
	c0.03,0.085-0.184,0.085-0.333,0.075c-0.149-0.009-0.021,0.182-0.018,0.295c0.001,0.114,0.027,0.243,0.176,0.427
	C47.103,39.316,47.269,39.356,47.383,39.242z M55.055,69.72c0,0,0.091,0.036,0.215,0.031c0.127-0.009,0.064-0.207-0.017-0.338
	c-0.079-0.13-0.348,0.067-0.457,0.166C54.688,69.678,55.006,69.628,55.055,69.72z M56.857,69.717c0.11-0.173-0.03-0.144-0.265-0.153
	c-0.232-0.006-0.222,0.071-0.133,0.271c0,0-0.045,0.051,0.099,0.135C56.702,70.053,56.744,69.887,56.857,69.717z M57.636,68.568
	c-0.115-0.115-0.155,0.137-0.115,0.303c0,0,0.095,0.007,0.172-0.032C57.771,68.798,57.753,68.679,57.636,68.568z M57.953,69.649
	c-0.211,0.311-0.03,0.413-0.146,0.574c-0.118,0.161-0.299,0.143-0.341,0.336c-0.042,0.194,0.065,0.211-0.281,0.288
	c-0.345,0.082-0.242,0.141-0.37,0.251c-0.132,0.112-0.097-0.05-0.214-0.133c-0.112-0.086-0.099,0.137-0.297,0.339
	c-0.194,0.202-0.424,0.177-0.599,0.281c-0.174,0.104-0.242,0.167-0.429,0.194c-0.187,0.024-0.238,0.366-0.33,0.801
	c0,0-0.141,0.357-0.055,0.529c0.087,0.167,0.169,0.441,0.065,0.597c-0.106,0.154-0.26,0.521-0.313,0.72
	c-0.056,0.2-0.215,0.915-0.151,1.225c0.059,0.314,0.157,0.505,0.375,0.706c0.221,0.201,0.335,0.229,0.636,0.256
	c0.305,0.032,0.212-0.091,0.356-0.224c0.146-0.135,0.135-0.07,0.351-0.154c0.214-0.082,0.304-0.186,0.463-0.324
	c0.156-0.142,0.204-0.266,0.27-0.499c0.063-0.233,0.168-0.428,0.213-0.552c0.051-0.125,0.163-0.301,0.239-0.456
	c0.079-0.154,0.175-0.131,0.16-0.269c-0.012-0.135,0.04-0.262,0.121-0.377c0.083-0.114,0.111-0.144,0.08-0.258
	c-0.029-0.11,0.06-0.329,0.186-0.61c0.127-0.278,0.047-0.383,0.005-0.546c-0.041-0.164,0.123-0.064,0.23,0.036
	c0.112,0.102,0.188-0.082,0.246-0.299c0.063-0.217-0.182-0.19-0.269-0.162c-0.082,0.032-0.117-0.038-0.005-0.124
	c0.111-0.087,0.325-0.311,0.418-0.488c0.096-0.181,0.085,0.156,0.219,0.172c0.138,0.017,0.067-0.179,0.046-0.381
	c-0.02-0.204,0.028-0.644,0.018-0.91c-0.012-0.267-0.234-0.31-0.404-0.392c-0.173-0.084-0.029-0.53-0.078-0.62
	C58.32,69.086,58.167,69.34,57.953,69.649z M61.549,73.473c-0.122,0.063-0.154,0.223-0.026,0.328c0,0,0.209,0.076,0.358,0.087
	c0.149,0.009,0.034-0.205-0.038-0.382C61.766,73.331,61.673,73.407,61.549,73.473z M62.741,72.897
	c-0.226,0.116-0.174,0.247-0.057,0.357c0,0,0.25-0.042,0.377-0.122c0.131-0.083,0.16-0.226,0.109-0.315
	C63.126,72.728,62.969,72.781,62.741,72.897z M75.64,52.678c-0.117-0.076-0.227-0.303-0.261-0.365
	c-0.031-0.064-0.109-0.008-0.171,0.102c-0.06,0.111-0.123,0.466-0.101,0.533c0.021,0.067,0.037,0.075,0.034,0.156
	c-0.002,0.08,0.015,0.153,0.035,0.494c0,0,0.011,0.23,0.022,0.326c0.009,0.095,0.103,0.101,0.189,0.243
	c0.09,0.142,0.055,0.313,0.142,0.412c0.09,0.101,0.218,0.015,0.424-0.038c0.209-0.047,0.04-0.16,0.085-0.354
	c0.043-0.196,0.072-0.365,0.029-0.436c-0.048-0.073-0.025-0.135-0.021-0.222c0.004-0.092,0.028-0.237-0.023-0.392
	c-0.05-0.154-0.058-0.28-0.096-0.349C75.885,52.727,75.762,52.755,75.64,52.678z M83.165,53.799
	c-0.055-0.152-0.125,0.205-0.204,0.295c-0.077,0.091-0.055-0.093-0.111-0.187c-0.055-0.096-0.195-0.351-0.308-0.399
	c-0.114-0.053-0.137-0.191-0.227-0.335c-0.086-0.143-0.146-0.147-0.146-0.329c0-0.184-0.031-0.313-0.2-0.398
	c-0.167-0.087-0.194,0.069-0.244,0.198c-0.05,0.128-0.166,0.108-0.259,0.104c-0.09-0.002-0.073-0.171-0.155-0.252
	c-0.076-0.085-0.096,0.105-0.058,0.201c0.035,0.099,0.124,0.233,0.111,0.352c-0.022,0.118-0.026,0.253,0.019,0.366
	c0.048,0.115,0.091,0.188,0.292,0.184c0,0,0.064,0.041,0.091,0.12c0.029,0.08,0.053,0.227,0.08,0.394
	c0.027,0.168-0.037,0.415,0.074,0.463c0.111,0.054,0.223,0.163,0.31,0.304c0.086,0.146,0.079,0.199,0.07,0.401
	c-0.012,0.202,0.127,0.106,0.197,0.102c0.067-0.006,0.202-0.011,0.25,0.036c0.048,0.051,0.035,0.418,0.028,0.501
	c-0.01,0.085,0.077,0.543,0.061,0.68c-0.016,0.141,0.166,0.366,0.341,0.556c0.173,0.198,0.02,0.212,0.118,0.466
	c0.091,0.256,0.173,0.033,0.294-0.073c0.119-0.104,0.139-0.304,0.153-0.443c0.015-0.138-0.024-0.349,0.043-0.521
	c0.069-0.174,0.123-0.156,0.179-0.37c0.058-0.211,0.003-0.473-0.083-0.777c-0.084-0.305-0.071-0.109-0.18-0.195
	c-0.112-0.089-0.127-0.495-0.142-0.635c-0.009-0.136-0.104-0.256-0.158-0.337C83.345,54.188,83.223,53.952,83.165,53.799z
	 M81.7,54.66c-0.008-0.046,0.015-0.289-0.027-0.478c-0.049-0.186-0.114,0.05-0.212,0.144c-0.094,0.093,0.114,0.262,0.161,0.381
	C81.622,54.707,81.71,54.707,81.7,54.66z M82.114,55.275c0.115-0.018,0.092-0.158,0.034-0.316c-0.061-0.156-0.117-0.18-0.248-0.133
	c-0.126,0.043,0.004,0.187,0.08,0.374C81.98,55.2,81.996,55.289,82.114,55.275z M82.532,55.743c0-0.183-0.082-0.111-0.204-0.115
	c-0.127,0-0.044,0.103,0.007,0.37c0,0,0.029,0.135,0.128,0.093C82.562,56.043,82.532,55.925,82.532,55.743z M31.674,58.681
	c-0.068-0.049-0.164,0.191-0.143,0.396c0.017,0.201,0.018,0.194,0.096,0.355c0,0,0.018,0.063,0.083,0.006
	c0.065-0.052,0.02-0.103,0.083-0.199c0.064-0.102,0.083-0.009,0.161-0.057c0.078-0.046-0.047-0.221-0.123-0.253
	C31.755,58.893,31.743,58.732,31.674,58.681z M30.753,60.733c0.046-0.122-0.016-0.225-0.094-0.357
	c-0.085-0.132-0.172-0.129-0.238-0.036c-0.07,0.093-0.007,0.352,0.131,0.438C30.552,60.777,30.71,60.858,30.753,60.733z
	 M24.004,37.401c-0.003-0.176,0.001-0.19-0.129-0.19c-0.135-0.003-0.062,0.275-0.017,0.441
	C23.858,37.652,24.009,37.581,24.004,37.401z M36.38,24.819c0.131-0.067,0.175-0.225,0.14-0.206c-0.04,0.02-0.137-0.079-0.164-0.129
	c-0.025-0.048-0.174-0.125-0.326-0.058c-0.158,0.067-0.357,0.34-0.426,0.417c-0.07,0.076-0.134,0.015-0.155-0.04
	c-0.018-0.051-0.136,0-0.174,0.044c-0.041,0.043-0.15,0.107-0.225,0.147c-0.076,0.04-0.209,0.076-0.293,0.192
	c-0.085,0.114,0.128,0.02,0.242-0.048c0.115-0.067,0.212-0.067,0.292-0.04c0.088,0.027-0.006,0.116-0.046,0.213
	c-0.034,0.097-0.216,0.325-0.246,0.452c-0.029,0.126-0.254,0.392-0.231,0.437c0.023,0.044,0.198,0.103,0.241,0.143
	c0.042,0.043,0.041,0.113-0.055,0.17c-0.097,0.058-0.246,0.222-0.343,0.374c-0.093,0.152-0.409,0.262-0.52,0.35
	c-0.111,0.09-0.354,0.554-0.496,0.795c-0.144,0.239-0.108,0.233-0.326,0.315c-0.219,0.082-0.335,0.024-0.431,0.125
	c-0.104,0.097,0.232,0.222,0.407,0.213c0.174-0.013,0.217-0.099,0.418-0.216c0.196-0.119,0.143,0.018,0.289,0.069
	c0.146,0.054,0.525,0.163,0.748,0.164c0.222,0.003,0.228-0.012,0.499-0.027c0,0,0.213-0.126,0.209-0.204
	c-0.001-0.079-0.071-0.137-0.006-0.256c0.063-0.121,0.205-0.102,0.432-0.169c0.224-0.07,0.149-0.149,0.179-0.265
	c0.026-0.119,0.163-0.11,0.318-0.207c0.156-0.097,0.114-0.191,0.044-0.298c-0.072-0.104-0.167-0.049-0.268-0.161
	c-0.096-0.115-0.131-0.161-0.174-0.249c-0.044-0.085,0.106-0.18,0.071-0.274c-0.032-0.091-0.151,0.061-0.187,0.003
	c-0.038-0.058,0.168-0.34,0.21-0.463c0.04-0.123-0.051-0.093-0.111-0.18c-0.061-0.086,0.237-0.28,0.309-0.366
	c0.074-0.084,0.228-0.441,0.216-0.496c-0.014-0.058-0.058-0.097-0.144-0.094C36.214,25.001,36.249,24.886,36.38,24.819z
	 M32.257,27.349c-0.026,0.1,0.001,0.204,0.089,0.31c0.082,0.105,0.155-0.075,0.327-0.094c0.176-0.017,0.17,0.064,0.307,0.042
	c0.137-0.024,0.175-0.043,0.293-0.027c0,0,0.05-0.008,0.079-0.042c0.034-0.032,0.083-0.158,0.145-0.255
	c0.061-0.094,0.338-0.38,0.401-0.523c0.062-0.142,0.151-0.179,0.327-0.286c0.173-0.106,0.207-0.117,0.28-0.186
	c0.074-0.07,0.036-0.191-0.017-0.292c-0.052-0.099-0.147,0.045-0.234,0.018c-0.083-0.025,0.009-0.135-0.029-0.211
	c-0.042-0.073-0.102-0.011-0.259,0.038c-0.156,0.048-0.158,0.17-0.27,0.345c-0.114,0.174-0.169,0.086-0.216-0.008
	c-0.051-0.091-0.062-0.094-0.275,0.019c-0.221,0.112-0.018,0.149-0.088,0.319c-0.07,0.173-0.175,0.255-0.325,0.509
	c-0.155,0.254-0.145-0.123-0.242-0.096C32.455,26.955,32.283,27.25,32.257,27.349z M32.088,27.421c0,0,0.175-0.21,0.184-0.319
	c0.007-0.103-0.106,0.058-0.231,0.152C31.919,27.351,32.015,27.402,32.088,27.421z M34.933,24.795
	c0.004-0.068-0.069,0.035-0.15,0.087c-0.086,0.052,0.009,0.131,0.08,0.099C34.862,24.981,34.926,24.861,34.933,24.795z
	 M35.161,24.837c0.073-0.055,0.038-0.122,0.038-0.122s-0.19,0.044-0.193,0.131C35.005,24.846,35.084,24.89,35.161,24.837z
	 M35.504,24.65c0.089-0.044,0.221-0.169,0.265-0.344c0.044-0.172-0.091-0.053-0.17-0.011c-0.082,0.043-0.187,0.126-0.23,0.198
	c-0.042,0.07-0.072,0.122-0.108,0.188c0,0-0.014,0.064,0.018,0.046C35.305,24.712,35.415,24.694,35.504,24.65z M36.688,24.454
	c0,0,0.199-0.134,0.252-0.186c0.053-0.051,0.006-0.065-0.045-0.04C36.847,24.256,36.695,24.316,36.688,24.454z M37.672,23.63
	c-0.021,0.058-0.013,0.164-0.086,0.33c-0.074,0.165-0.146,0.162-0.079,0.214c0,0,0.125-0.073,0.208-0.131
	c0.079-0.058,0.225-0.188,0.31-0.24c0.082-0.05,0.023-0.123,0.028-0.249C38.055,23.424,37.698,23.57,37.672,23.63z M53.602,19.777
	c-0.125-0.038-0.201,0.073-0.12,0.157c0.082,0.083,0.303,0.096,0.43,0.123c0,0,0.135-0.027,0.246-0.055
	c0.112-0.027,0.013-0.038-0.146-0.068C53.856,19.905,53.721,19.815,53.602,19.777z M52.038,19.671
	c0.061,0.071-0.017,0.152,0.077,0.181c0.093,0.032,0.166-0.013,0.249-0.065c0.085-0.051-0.007-0.14,0.101-0.115
	c0.105,0.024,0.011,0.191,0.215,0.19c0,0,0.242-0.04,0.435-0.059c0.196-0.025,0.109-0.034,0.134-0.089
	c0.031-0.055-0.164-0.112-0.285-0.127c-0.119-0.018-0.179-0.058-0.277-0.186c-0.101-0.129-0.169-0.262-0.211-0.348
	c-0.044-0.088-0.201-0.04-0.374-0.037c-0.171,0.003-0.27,0.061-0.334,0.165c-0.064,0.105,0.05,0.172-0.014,0.198
	c-0.064,0.024-0.024,0.106,0.059,0.19C51.892,19.649,51.979,19.598,52.038,19.671z M52.063,18.868c0,0,0.294,0.013,0.338,0.032
	c0.049,0.013,0.035-0.058,0.065-0.167c0.03-0.11,0.207-0.059,0.382-0.097c0.179-0.037-0.063-0.076-0.128-0.16
	c-0.07-0.085,0.145-0.164,0.282-0.213c0.14-0.05-0.025-0.159-0.078-0.217s0.122-0.062,0.269-0.102
	c0.147-0.037,0.175-0.017,0.167-0.123c-0.01-0.108,0.069,0.074,0.254,0.08c0.186,0.006-0.051-0.109-0.112-0.153
	c-0.065-0.047-0.261-0.006-0.347-0.012c-0.08-0.005-0.192-0.041-0.253-0.098c-0.063-0.055-0.069,0.005-0.146,0.091
	c-0.071,0.084-0.128,0.161-0.172,0.151c-0.043-0.006-0.246,0.041-0.34,0.099c-0.102,0.058,0.091,0.199,0.032,0.299
	c-0.057,0.099-0.142,0.079-0.313,0.076c-0.178-0.006-0.18,0.037-0.279,0.086c-0.101,0.054,0.085,0.09,0.14,0.182
	c0.052,0.089-0.04,0.162-0.132,0.275C51.601,19.006,51.936,18.911,52.063,18.868z M37.342,20.701
	c0.06-0.152-0.348-0.098-0.439-0.106c-0.09-0.003-0.231,0.155-0.45,0.167c-0.221,0.008-0.14-0.104-0.295-0.073
	c-0.163,0.03-0.476,0.191-0.624,0.374c-0.149,0.18-0.599,0.517-0.514,0.544c0.081,0.026,0.242,0.134,0.455,0.145
	c0.214,0.014,0.214,0.044,0.385,0.044c0.175-0.003,0.22-0.115,0.336-0.156c0.117-0.044,0.164,0.05,0.466-0.069
	c0,0,0.295-0.17,0.431-0.31C37.227,21.121,37.28,20.852,37.342,20.701z M31.667,21.124c0.123-0.064,0.893-0.48,1.043-0.559
	c0.15-0.078,0.563-0.187,0.699-0.292c0.137-0.105,0.183-0.25,0.382-0.301c0.198-0.048,0.497-0.045,0.666-0.12
	c0.17-0.07,0.532-0.175,0.532-0.175s0.06,0.112,0.21,0.033c0.15-0.076,0.499-0.205,0.637-0.276c0.137-0.07,0.697-0.155,0.803-0.188
	c0.102-0.037,0.339-0.075,0.386,0.006c0.039,0.083,0.187,0.129,0.287,0.093c0.104-0.035,0.509-0.158,0.509-0.158l0.105,0.102
	c0.197-0.085,0.387-0.219,0.256-0.272c-0.13-0.051-0.048-0.131,0.052-0.2c0.104-0.07,0.468-0.17,0.414-0.108
	c-0.055,0.062,0.03,0.193,0.283,0.044c0.252-0.149,1.008-0.662,1.058-0.636c0.046,0.028,0.035,0.17,0.172,0.1
	c0.137-0.07,0.438-0.261,0.548-0.316c0.11-0.056,0.383-0.059,0.375-0.144c-0.006-0.081,0.309-0.245,0.382-0.23
	c0.077,0.011,0.64-0.245,0.72-0.287c0.084-0.044,0.37-0.158,0.491-0.255c0.123-0.098,0.337-0.192,0.578-0.263
	c0.239-0.072,0.334-0.052,0.663-0.187c0.328-0.137,0.824-0.357,0.962-0.359c0.137-0.001,0.643-0.022,0.592-0.153
	c-0.048-0.129-0.444-0.222-0.699-0.315c-0.255-0.091-0.599-0.019-0.964-0.053c-0.365-0.038-0.13-0.02-0.605-0.103
	c-0.479-0.083-0.795,0.012-1,0.047c-0.207,0.04-0.775,0.145-1.002,0.243c-0.227,0.1-0.604,0.208-0.649,0.353
	c-0.044,0.146-0.074,0.126-0.463,0.242c-0.393,0.115-1.427,0.562-1.604,0.658c-0.175,0.092-0.534,0.172-0.765,0.291
	c-0.236,0.122-1.111,0.402-1.506,0.608c-0.397,0.204-0.92,0.406-1.261,0.581c-0.34,0.178-0.663,0.292-1.097,0.554
	c-0.439,0.26-1.122,0.682-1.402,0.843c-0.28,0.165-0.663,0.797-0.78,0.906C31.559,20.987,31.542,21.188,31.667,21.124z
	 M46.22,17.663c-0.061,0.05-0.104-0.067-0.165-0.052c-0.064,0.013-0.16,0.064-0.167-0.122c-0.008-0.187-0.051-0.13-0.168-0.088
	c-0.114,0.042,0.05,0.166-0.111,0.353c-0.16,0.188,0.105,0.103,0.22,0.024c0.118-0.076-0.003,0.056,0.099,0.055
	s0.049,0.131-0.072,0.332c-0.123,0.202,0.113,0.182,0.386,0.044c0,0,0.052-0.168,0.037-0.264c-0.013-0.096,0.239-0.14,0.383-0.231
	c0.146-0.093,0.406-0.123,0.538-0.229c0.137-0.105-0.854-0.109-0.955-0.076C46.141,17.443,46.282,17.615,46.22,17.663z
	 M46.933,17.833c-0.202-0.018-0.295,0.1-0.362,0.237c0,0,0.143-0.021,0.28-0.024c0.14,0,0.202,0.053,0.415-0.108
	C47.476,17.775,47.135,17.85,46.933,17.833z M50.049,17.291c0.123-0.132-0.232-0.05-0.299-0.016c-0.07,0.037-0.152,0.148-0.049,0.25
	C49.701,17.525,49.929,17.427,50.049,17.291z M49.186,17.358c0.067-0.069-0.118-0.058-0.264-0.107
	c-0.147-0.043-0.073,0.126,0.059,0.215C48.98,17.466,49.116,17.43,49.186,17.358z M50.054,17.064
	c0.075-0.058-0.424-0.022-0.406,0.055l0.083,0.06C49.731,17.179,49.979,17.12,50.054,17.064z M54.534,16.841
	c0.199-0.048-0.233-0.083-0.298-0.07c-0.06,0.014-0.223-0.126-0.264-0.174c-0.041-0.047-0.099-0.053-0.151,0.077
	c-0.056,0.131,0.085,0.198,0.184,0.289C54.005,16.963,54.334,16.895,54.534,16.841z M54.419,16.957
	c-0.07-0.035-0.229,0.065-0.13,0.152c0,0,0.28,0.045,0.422,0.111c0.139,0.065,0.082-0.077,0.246-0.161
	c0.164-0.086,0.309-0.039,0.391-0.115c0.082-0.079-0.388-0.112-0.704,0.015C54.329,17.088,54.487,16.989,54.419,16.957z
	 M56.111,16.841c0,0,0.07,0.068,0.198,0.088c0.13,0.019,0.168,0.017,0.31-0.006c0.146-0.023,0.067-0.172,0.067-0.172
	s0.082-0.216,0.143-0.265c0.059-0.05-0.073-0.135-0.166-0.086c-0.099,0.049-0.108,0.228-0.175,0.298
	c-0.068,0.07-0.186,0.045-0.186,0.045s-0.284-0.079-0.449,0.005C55.688,16.835,55.874,16.858,56.111,16.841z M23.331,32.687
	c0,0,0.214-0.094,0.204-0.211c-0.009-0.116-0.287,0.047-0.432,0.17C22.96,32.773,23.249,32.727,23.331,32.687z M23.442,32.264
	l0.035,0.072c0,0,0.15-0.083,0.176-0.268C23.679,31.882,23.476,32.127,23.442,32.264z M23.316,32.019c0,0,0.125,0.04,0.191,0.003
	c0.066-0.035-0.035-0.067-0.092-0.143c-0.054-0.075-0.056-0.176-0.1-0.4c-0.047-0.219-0.137,0.073-0.223,0.149
	c-0.08,0.076-0.112,0.147-0.022,0.22C23.162,31.923,23.244,31.916,23.316,32.019z M23.451,33.421
	c0.043-0.021,0.174-0.106,0.206-0.21c0.033-0.102-0.22-0.026-0.26,0.17C23.396,33.381,23.41,33.442,23.451,33.421z M23.267,33.568
	c-0.042-0.082-0.165,0.083-0.154,0.236l0.061-0.049C23.174,33.755,23.313,33.65,23.267,33.568z M32.419,35.201
	c-0.073-0.137,0.037-0.195-0.062-0.169c-0.101,0.027-0.239,0.146-0.196,0.228c0.041,0.078-0.019,0.11,0.026,0.272
	c0,0,0.061,0.017,0.113-0.008C32.35,35.502,32.488,35.338,32.419,35.201z M32.734,35.525c0,0,0.104,0.047,0.211,0.041
	c0.106-0.007,0.111-0.196,0.026-0.263C32.886,35.234,32.731,35.414,32.734,35.525z M33.095,35.151
	c0.132-0.057,0.088-0.234,0.05-0.312c-0.041-0.079-0.202-0.022-0.339,0.174c-0.134,0.196-0.071,0.199,0.03,0.173
	C32.836,35.186,32.959,35.209,33.095,35.151z M33.748,34.875c0.058-0.082,0.001-0.166-0.091-0.228
	c-0.096-0.064-0.308,0.173-0.244,0.303c0,0-0.003,0.135,0.134,0.093C33.684,34.994,33.692,34.953,33.748,34.875z M35.775,34.515
	c-0.05-0.026-0.222,0.175-0.17,0.25c0,0,0.089-0.021,0.18-0.067C35.871,34.65,35.825,34.538,35.775,34.515z M38.045,37.888
	c-0.107,0.006-0.181,0.179-0.148,0.24c0,0,0.055,0.058,0.198-0.055C38.235,37.964,38.156,37.88,38.045,37.888z M59.979,53.768
	c-0.115-0.027-0.119,0.137,0.021,0.188c0,0,0.125-0.051,0.145-0.136C60.163,53.735,60.095,53.795,59.979,53.768z M61.021,53.316
	c-0.134-0.019-0.479,0.186-0.331,0.396c0,0,0.039,0.077,0.124,0.146c0.087,0.067,0.179,0.032,0.322-0.029
	c0.145-0.061,0.132-0.107,0.105-0.204C61.218,53.527,61.153,53.334,61.021,53.316z M77.729,29.057
	c0.169-0.088,0.146-0.132,0.206-0.492c0.014-0.095,0.053-0.213,0.1-0.332c-4.834-6.223-11.508-10.5-18.825-12.451
	c-0.231,0.019-0.834-0.059-1.217-0.109c-0.443-0.059-0.084,0.17,0.185,0.38c0.272,0.209,1.501,0.172,1.881,0.375
	c0.38,0.202,0.21,0.33-0.074,0.289c-0.284-0.04-0.596,0.033-0.701,0.239c-0.108,0.204-0.113,0.357-0.314,0.45
	c-0.204,0.093-0.998-0.597-1.181-0.713c-0.188-0.116-0.593,0.167-0.929,0.167c-0.341,0,0.242,0.25,0.009,0.383
	c-0.229,0.132-0.067-0.112-0.213-0.152c-0.147-0.036-0.305,0.046-0.469,0.017c-0.161-0.029-0.157,0.132-0.208,0.248
	c-0.054,0.113,0.099,0.047,0.268,0.11c0.17,0.061-0.015,0.232-0.163,0.334c-0.149,0.101,0.064,0.192,0.268,0.274
	c0.202,0.081,0.455-0.011,0.555,0.038c0.099,0.047-0.224,0.127-0.362,0.215c-0.146,0.083,0.185,0.14,0.291,0.246
	c0.104,0.11,0.242,0.063,0.513,0.125c0.27,0.059,0.636,0.332,0.655,0.447c0.022,0.113-0.642-0.33-0.824-0.386
	c-0.18-0.058-0.391,0.04-0.494-0.009c-0.098-0.047-0.083-0.19-0.345-0.167c-0.268,0.023-0.032,0.138,0.055,0.255
	c0.089,0.12,0.407,0.204,0.443,0.347c0.035,0.146-0.287-0.024-0.411-0.113c-0.119-0.088-0.31-0.24-0.416-0.372
	c-0.105-0.132-0.223-0.07-0.235,0.022c-0.016,0.096,0.251,0.245,0.3,0.344c0.05,0.099,0.26,0.229,0.429,0.393
	c0.172,0.16,0.43,0.326,0.652,0.41c0.218,0.088,0.359,0,0.633,0.036c0.266,0.036,0.422,0.194,0.582,0.261
	c0.161,0.067,0.299,0.07,0.249,0.245c-0.046,0.175-0.526-0.228-0.648-0.315c-0.119-0.088-0.392-0.109-0.595-0.066
	c-0.203,0.043,0.301,0.343,0.32,0.646c0.019,0.303-0.24,0.114-0.272-0.144c-0.037-0.258-0.362-0.501-0.554-0.629
	c-0.189-0.125-0.327-0.152-0.403-0.301c-0.078-0.145-0.283-0.276-0.542-0.418c-0.26-0.14-0.317-0.322-0.413-0.362
	c-0.093-0.038-0.163,0.023-0.229-0.082c-0.066-0.104-0.306-0.204-0.469-0.131s0.226,0.12,0.197,0.309
	c-0.027,0.191,0.023,0.239-0.019,0.35c-0.045,0.109,0.004,0.134,0.143,0.251c0.135,0.117,0.267,0.132,0.464,0.248
	c0.195,0.109,0.456,0.126,0.437,0.258c-0.019,0.134-0.024,0.126-0.337,0.052c-0.314-0.075-0.244-0.037-0.527-0.052
	c-0.285-0.017-0.66,0.027-0.937,0.047c-0.28,0.017-0.219,0.111-0.078,0.166c0.141,0.051,0.151,0.146,0.123,0.31
	c-0.03,0.163-0.279-0.082-0.419-0.109s-0.36,0.076-0.54,0.117c-0.178,0.043-0.205-0.056-0.26-0.14
	c-0.057-0.083-0.307,0.083-0.438,0.19c-0.133,0.104-0.311,0.098-0.494,0.181c-0.184,0.08-0.071-0.236-0.116-0.316
	c-0.041-0.078-0.082,0.055-0.274,0.018c-0.193-0.037-0.227-0.096-0.239,0.023c-0.012,0.121,0.204,0.058,0.177,0.196
	c-0.027,0.142,0.072,0.138,0.179,0.345c0.107,0.209-0.1,0.175-0.314,0.214c-0.22,0.037-0.108-0.068-0.12-0.327
	c-0.007-0.258-0.167-0.3-0.375-0.292c-0.208,0.006-0.2,0.027-0.323,0.003c-0.125-0.021-0.292-0.085-0.309,0.012
	c-0.014,0.093,0.207,0.106,0.268,0.224c0.062,0.118,0.022,0.211,0.132,0.304s0.201,0.222,0.218,0.351
	c0.018,0.129-0.321,0.079-0.386,0c-0.067-0.079-0.169-0.037-0.25,0.003c-0.077,0.043-0.191-0.037-0.377-0.027
	c-0.182,0.005,0.013,0.117-0.223,0.24c-0.235,0.122-0.227,0.142-0.375,0.17c-0.15,0.024-0.14-0.055-0.393,0.014
	c-0.252,0.07-0.15,0.14-0.096,0.323c0.059,0.187,0.237,0.241,0.245,0.351c0.009,0.106-0.421-0.019-0.549-0.165
	c-0.123-0.149,0.012-0.384,0.035-0.632c0.022-0.25-0.2-0.311-0.271-0.45c-0.07-0.136,0.275,0.024,0.421,0.16
	c0.146,0.136,0.265,0.05,0.568,0.106c0.303,0.054,0.426-0.096,0.482-0.227c0.059-0.13-0.077-0.246-0.289-0.337
	c-0.207-0.091-0.083-0.07-0.161-0.216c-0.076-0.147-0.153-0.207-0.34-0.249c-0.186-0.043-0.427-0.052-0.624-0.065
	c-0.19-0.014-0.227,0.068-0.307-0.016c-0.079-0.083,0.008-0.178-0.061-0.219c-0.07-0.037-0.263,0.026-0.391,0.093
	c-0.128,0.064-0.21,0.03-0.154-0.034c0.05-0.065,0.25-0.118,0.233-0.248c-0.016-0.129-0.204-0.108-0.383-0.089
	c-0.181,0.018-0.132-0.043-0.245-0.086c-0.11-0.042-0.109,0.057-0.25,0.144c-0.141,0.086-0.255,0.009-0.332-0.016
	c-0.076-0.024-0.103-0.146-0.254-0.131c-0.155,0.019-0.369-0.01-0.479,0.07c-0.108,0.082,0.211,0.094,0.129,0.158
	c-0.074,0.067-0.146,0.027-0.201,0.019c-0.053-0.009-0.251-0.006-0.37,0.055c-0.118,0.063-0.466,0.065-0.611,0.128
	c-0.141,0.061-0.351,0.021-0.415,0.063c-0.065,0.049,0.158,0.158,0.064,0.219c-0.094,0.062-0.237,0.172-0.366,0.188
	c-0.129,0.017,0.045-0.247,0.072-0.299c0.021-0.049-0.114-0.001-0.21,0.058c-0.091,0.063-0.272,0.169-0.394,0.229
	c-0.119,0.063,0.058,0.257-0.059,0.395c-0.116,0.134-0.131-0.184-0.272-0.097c-0.145,0.087-0.192,0.286-0.298,0.293
	c-0.112,0.004-0.172,0.037-0.353,0.142c-0.184,0.109,0.201,0.097,0.184,0.167c-0.01,0.07-0.138,0.07-0.255,0.132
	c-0.118,0.062-0.191,0.087-0.305,0.156c-0.111,0.073-0.122,0.128-0.295,0.229c-0.17,0.104-0.139,0.185-0.212,0.363
	c-0.07,0.175-0.186,0.096-0.257,0.222c-0.072,0.123-0.272,0.126-0.353,0.169c-0.078,0.039-0.146-0.064-0.351-0.006
	c-0.208,0.058-0.403,0.096-0.627,0.287c-0.228,0.19-0.058,0.278,0.067,0.252c0.125-0.029,0.142,0.102,0.088,0.19
	c-0.054,0.091-0.26-0.064-0.359-0.064c-0.096,0.003-0.148,0.078-0.227,0.195c-0.078,0.115,0.085,0.28,0.045,0.424
	c-0.036,0.143-0.117,0.063-0.193,0.038c-0.075-0.022-0.278,0.159-0.432,0.274c-0.153,0.115,0.044,0.112,0.06,0.357
	c0.014,0.245-0.309,0.248-0.248,0.342c0.061,0.094,0.414,0.122,0.546,0.091c0.134-0.03,0.165-0.073,0.337-0.149
	c0.172-0.076,0.207-0.059,0.251-0.143c0.042-0.085,0.125-0.24,0.232-0.294c0.107-0.058,0.289-0.125,0.396-0.207
	c0.108-0.079,0.16-0.146,0.175-0.003c0.012,0.146-0.091,0.41-0.216,0.675c-0.126,0.265,0.035,0.259,0.032,0.52
	c0,0.264-0.086,0.532-0.048,0.751c0.036,0.219,0.268,0.037,0.485-0.076c0.218-0.113,0.468-0.304,0.636-0.441
	c0.166-0.135,0.313-0.098,0.323-0.267c0.011-0.169,0.131-0.204,0.268-0.326c0.137-0.122,0.058-0.131,0.115-0.313
	c0.06-0.177,0.286-0.345,0.362-0.385c0.078-0.041,0.35-0.169,0.435-0.274c0.081-0.104,0.024-0.165-0.055-0.299
	c-0.081-0.132,0.001-0.213,0.046-0.346c0.041-0.134,0.155-0.544,0.185-0.584c0.026-0.04,0.351-0.207,0.482-0.274
	c0.128-0.067,0.371-0.055,0.45-0.12c0.077-0.067-0.003-0.076,0.314-0.19c0.315-0.112,0.192-0.136,0.217-0.225
	c0.032-0.091,0.054-0.164,0.174-0.228c0.118-0.06,0.146-0.125,0.216-0.211c0.067-0.084,0.096,0.04,0.219,0.038
	c0.125-0.001,0.429,0.103,0.469,0.207c0.041,0.104-0.212,0.122-0.262,0.222c-0.046,0.102-0.087,0.046-0.255,0.083
	c-0.167,0.038-0.228,0.068-0.306,0.185c-0.077,0.115-0.369,0.277-0.554,0.424c-0.188,0.146-0.144,0.16-0.116,0.232
	c0.029,0.076-0.001,0.166-0.035,0.344c-0.034,0.179-0.155,0.255-0.243,0.377c-0.086,0.12,0.04,0.316,0.108,0.444
	c0.065,0.129,0.243,0.112,0.471,0.046c0.228-0.068,0.508-0.178,0.748-0.291c0.242-0.113,0.865,0.027,0.999,0.047
	c0.137,0.019,0.058,0.107,0.009,0.207c-0.045,0.101-0.528,0.161-0.678,0.188c-0.147,0.027-0.606-0.111-0.739-0.055
	c-0.134,0.06-0.327,0.045-0.476,0.096c-0.147,0.053-0.236,0.198-0.246,0.303c-0.009,0.102,0.053,0.173,0.094,0.152
	c0.038-0.018,0.185,0.042,0.324,0.021c0.135-0.021,0.073,0.021,0.03,0.132c-0.044,0.11-0.117,0.26-0.272,0.418
	c-0.158,0.155-0.181-0.009-0.249-0.049c-0.068-0.037-0.175-0.097-0.227-0.194c-0.05-0.098-0.119,0.038-0.187,0.122
	c-0.068,0.085-0.24,0.185-0.298,0.292c-0.056,0.105-0.043,0.225-0.233,0.322c-0.187,0.097-0.061,0.22-0.142,0.347
	c-0.088,0.134-0.263,0.222-0.39,0.316c-0.127,0.088-0.127,0.216-0.161,0.27c-0.035,0.056-0.276,0.141-0.375,0.12
	c-0.102-0.024,0.053-0.115,0.117-0.185c0.062-0.07-0.125-0.051-0.254-0.031c-0.129,0.015-0.415,0.064-0.526,0.096
	c-0.108,0.032-0.55,0.047-0.642,0.059c-0.096,0.011-0.208,0.106-0.322,0.176c-0.111,0.073-0.008-0.183-0.008-0.231
	c-0.003-0.052-0.174-0.073-0.238-0.076c-0.064-0.004-0.293-0.037-0.41-0.015c-0.114,0.021-0.224,0.094-0.345,0.055
	c-0.122-0.038-0.246-0.113-0.322-0.21c-0.078-0.097-0.079-0.343-0.082-0.42c0-0.076-0.096,0.052-0.155,0.108
	c-0.058,0.053-0.307,0.157-0.353,0.281c-0.049,0.125,0.158,0.355,0.109,0.455c-0.045,0.102-0.141,0.086-0.304,0.083
	c-0.166-0.002-0.333-0.064-0.456-0.128c-0.12-0.062-0.24,0.165-0.359,0.225c-0.117,0.062-0.36,0.149-0.444,0.18
	c-0.085,0.03-0.199-0.022-0.278,0.018c-0.076,0.043-0.059,0.105-0.137,0.293c-0.074,0.19-0.109,0.248-0.2,0.332
	c-0.096,0.087-0.063,0.12-0.198,0.053c-0.137-0.068-0.469,0.064-0.7,0.175c-0.229,0.106-0.451,0.284-0.57,0.342
	c-0.117,0.062-0.129,0.093-0.227,0.243c-0.097,0.151-0.186,0.123-0.445,0.081c-0.258-0.04-0.546-0.166-0.66-0.193
	c-0.12-0.029-0.147,0.249-0.231,0.355c-0.08,0.106-0.094-0.04-0.198-0.021c-0.106,0.016-0.088,0.07-0.197-0.024
	c-0.113-0.091-0.13-0.107-0.186-0.067c-0.055,0.043-0.255,0.086-0.288,0.175c-0.026,0.088-0.2,0.166-0.283,0.269
	c-0.083,0.108-0.053,0.092,0.126,0.149c0.18,0.058,0.099,0.049,0.201,0.168c0.101,0.126,0.11-0.004,0.167-0.037
	c0.061-0.027,0.058,0.035,0.122,0.163c0.068,0.129,0.086,0.045,0.083,0.135c-0.002,0.088-0.114,0.143-0.097,0.321
	c0.019,0.181-0.006,0.281-0.042,0.424c-0.04,0.143-0.126,0.14-0.065,0.258c0.061,0.12,0.082,0.158,0.032,0.235
	c-0.047,0.075-0.089-0.03-0.11-0.12c-0.022-0.087-0.05-0.12-0.11-0.067c-0.058,0.056-0.149,0.1-0.196,0.175
	c-0.049,0.077,0.018,0.199,0.018,0.199c-0.02,0.13-0.186,0.111-0.312,0.213c-0.125,0.099-0.086,0.377-0.527,0.307
	c-0.441-0.071-0.288-0.185-0.428-0.217c-0.145-0.033-0.31-0.05-0.389-0.204c-0.077-0.152-0.129-0.145-0.266-0.178
	c-0.141-0.032-0.373-0.142-0.54-0.056c-0.167,0.086-0.202,0.086-0.266-0.003c-0.064-0.09-0.195-0.038-0.276,0.146
	c-0.083,0.18-0.163,0.434-0.208,0.686c-0.046,0.254-0.373,0.843-0.702,1.295c-0.326,0.452-0.563,0.748-0.576,1.021
	c-0.02,0.272-0.072,0.405-0.157,0.587c-0.079,0.184,0.107,0.138,0.271,0.143c0.16,0.005,0.307,0.017,0.348,0.065
	c0.047,0.047,0.015,0.538,0.108,0.682c0.094,0.143,0.214-0.093,0.327-0.15c0.112-0.058,0.208-0.075,0.398-0.049
	c0.187,0.025,0.308,0.19,0.593,0.202c0.291,0.011,0.604-0.032,0.754-0.073c0.153-0.045,0.263-0.313,0.36-0.363
	c0.094-0.05,0.588-0.357,0.698-0.414c0.114-0.058,0.181-0.604,0.254-0.834c0.073-0.231,0.283-0.27,0.464-0.362
	c0.183-0.094,0.572-0.191,0.714-0.214c0.149-0.022,0.557-0.39,0.564-0.538c0.013-0.148,0.083-0.252,0.372-0.37
	c0.295-0.115,0.385-0.04,0.686,0c0.303,0.037,0.377,0.086,0.519,0.013c0.139-0.072,0.284-0.094,0.461-0.098
	c0.173-0.003,0.462-0.153,0.532-0.19c0.07-0.033,0.212,0.067,0.309,0.053c0.098-0.017-0.031-0.16,0.073-0.266
	c0.102-0.108,0.087,0.06,0.207,0.261c0.122,0.203,0.164,0.319,0.252,0.485c0.085,0.166,0.288,0.291,0.411,0.56
	c0.123,0.272,0.04,0.312,0.224,0.36c0.184,0.046,0.25,0.081,0.458,0.344c0.208,0.259,0.505,0.634,0.538,0.898
	c0.03,0.268-0.271,0.736-0.401,0.859c-0.129,0.122,0.073,0.175,0.278,0.1c0.209-0.073,0.328-0.081,0.433-0.257
	c0.101-0.176,0.064-0.352,0.126-0.4c0.063-0.048,0.298-0.173,0.311-0.319c0.009-0.146-0.157-0.129-0.205-0.227
	c-0.052-0.097,0.147-0.357,0.266-0.401c0.117-0.044,0.297,0.23,0.368,0.372c0.071,0.137,0.34-0.089,0.296-0.208
	c-0.042-0.119-0.193-0.376-0.374-0.456c-0.185-0.081-0.344-0.084-0.424-0.239c-0.078-0.15-0.167-0.354-0.265-0.478
	c-0.099-0.123-0.543-0.231-0.651-0.333c-0.102-0.104-0.042-0.662-0.024-0.796c0.019-0.133-0.235-0.088-0.425-0.147
	c-0.189-0.06-0.095-0.214-0.04-0.245c0.053-0.027,0.143-0.303,0.093-0.4c-0.051-0.097,0.067-0.104,0.278-0.037
	c0.211,0.065,0.052,0.129,0.012,0.255c-0.041,0.128,0.122,0.271,0.214,0.279c0.088,0.003,0.193-0.17,0.196-0.298
	c0.006-0.126,0.068,0,0.227,0.166c0.155,0.167,0.114,0.224,0.209,0.403c0.091,0.18-0.118,0.25-0.188,0.415
	c-0.079,0.161,0.047,0.061,0.263,0.142c0.22,0.082,0.046,0.082,0.3,0.199c0.25,0.114,0.351,0.168,0.476,0.208
	c0.126,0.042,0.394,0.149,0.583,0.312c0.193,0.167,0.111,0.28,0.043,0.491c-0.069,0.209-0.024,0.432-0.038,0.774
	c-0.017,0.344,0.114,0.119,0.252,0.36c0.146,0.244,0.169,0.319,0.234,0.478c0.067,0.16,0.122,0.202,0.225,0.235
	c0.106,0.035,0.407,0,0.401,0.127c-0.007,0.126-0.258-0.022-0.483,0.056c-0.221,0.08-0.187,0.113-0.216,0.324
	c-0.033,0.21,0.064,0.088,0.201,0.386c0.134,0.301,0.009,0.258,0.086,0.274c0.078,0.012,0.132-0.052,0.213,0.1
	c0.077,0.152,0.063,0.125,0.228,0.04c0.168-0.087,0.225-0.044,0.249-0.131c0.029-0.083,0.018-0.201,0.146-0.128
	c0.126,0.076,0.194-0.099,0.158-0.273c-0.038-0.173-0.01-0.224-0.068-0.196c-0.055,0.031-0.184,0.291-0.343,0.181
	c-0.163-0.109,0.295-0.205,0.407-0.265c0.113-0.057,0.09-0.134,0.231-0.1c0.137,0.032,0.276-0.04,0.204-0.248
	c-0.073-0.209-0.244-0.297-0.631-0.71c-0.391-0.415,0.066-0.477,0.432-0.628c0.36-0.152,1.037-0.237,1.142-0.204
	c0.105,0.034,0.065,0.228-0.059,0.33c-0.125,0.099-0.166,0.262-0.134,0.349c0.029,0.091,0.225,0.132,0.272,0.123
	c0.049-0.008,0.192,0.024,0.25,0.275c0.059,0.251-0.153,0.38-0.268,0.403c-0.11,0.022-0.133,0.318-0.174,0.441
	c-0.04,0.126,0.418-0.006,0.537,0.021c0.123,0.027,0.102,0.195,0.202,0.386c0.102,0.196,0.129,0.182,0.179,0.383
	c0.054,0.204-0.178,0.129,0.06,0.215c0.242,0.087,0.307-0.016,0.526-0.006c0.216,0.012,0.771,0.164,0.937,0.111
	c0.165-0.052,0.301-0.262,0.491-0.307c0.187-0.043,0.373,0.318,0.606,0.424c0.233,0.11,0.57-0.085,0.669-0.168
	c0.096-0.087,0.157-0.064,0.432-0.081c0.27-0.02,0.354,0.007,0.374-0.128c0.019-0.131,0.2-0.225,0.231,0.006
	c0.032,0.229-0.094,0.188-0.201,0.33c-0.099,0.139-0.035,0.262,0.044,0.487c0.079,0.222,0.005,0.455,0.021,0.621
	c0.019,0.169-0.073,0.231-0.12,0.38c-0.044,0.146-0.094,0.05-0.19,0.239c-0.096,0.191-0.123,0.347-0.055,0.575
	c0.065,0.229-0.198,0.435-0.354,0.641c-0.16,0.204-0.306,0.429-0.443,0.403c-0.135-0.024-0.524-0.062-0.637-0.146
	c-0.111-0.081-0.368-0.406-0.578-0.368c-0.21,0.04-1.058,0.266-1.397,0.391c-0.342,0.123-0.883-0.14-1.095-0.278
	c-0.209-0.138-0.506-0.056-0.727-0.01c-0.222,0.043-0.29-0.221-0.55-0.383c-0.26-0.166-0.462-0.042-0.719-0.067
	c-0.26-0.024-0.228-0.304-0.315-0.436c-0.084-0.129-0.742-0.143-1.072-0.132c-0.324,0.012-0.33,0.035-0.329,0.208
	c0.003,0.175-0.104,0.652-0.167,0.877c-0.058,0.222-0.546,0.299-0.669,0.328c-0.127,0.029-0.519-0.224-0.645-0.228
	c-0.128-0.005-0.359-0.009-0.417-0.121c-0.056-0.109-0.198-0.109-0.421-0.202c-0.224-0.096-0.242-0.368-0.281-0.609
	c-0.037-0.245-0.291-0.361-0.642-0.566c-0.354-0.205-0.725,0.024-0.839,0.081c-0.109,0.058-0.487-0.097-0.786-0.504
	c-0.3-0.408,0.22-0.52,0.185-0.66c-0.038-0.137,0.205-0.281,0.403-0.439c0.204-0.155-0.021-0.318-0.158-0.512
	c-0.135-0.193,0.087-0.378,0.298-0.613c0.213-0.232-0.217-0.186-0.289-0.219c-0.071-0.034,0.061-0.225-0.02-0.309
	c-0.079-0.083-0.278,0.006-0.265,0.136c0.017,0.132-0.262,0.172-0.435,0.245c-0.173,0.072-0.319,0.234-0.445,0.125
	c-0.128-0.11-0.108-0.172-0.351-0.239c-0.247-0.068-0.544,0.07-0.71,0.157c-0.167,0.085-0.21,0.038-0.274-0.086
	c-0.065-0.125-0.156-0.167-0.547-0.208c-0.392-0.046-0.827-0.032-1.186,0.05c-0.363,0.084-1.071,0.309-1.342,0.431
	c-0.272,0.123-0.704,0.032-1.07-0.096c-0.365-0.127-0.45-0.295-0.546-0.509c-0.093-0.216-0.091-0.109-0.236,0.085
	c-0.145,0.2-0.179,0.2-0.33,0.42c-0.149,0.219-0.239,0.246-0.443,0.368c-0.199,0.122-0.318,0.166-0.406,0.265
	c-0.091,0.101-0.396,0.187-0.549,0.266c-0.154,0.079-0.101,0.386-0.264,0.543c-0.166,0.155-0.324,0.394-0.417,0.655
	c-0.096,0.259-0.102,0.281-0.029,0.452c0.073,0.175-0.053,0.17-0.14,0.145c-0.081-0.026-0.156,0.031-0.332,0.242
	c-0.17,0.209-0.302,0.227-0.491,0.236c-0.19,0.01-0.088,0.135-0.324,0.255c-0.236,0.123-0.397,0.048-0.549,0.234
	c0,0-0.4,0.319-0.632,0.585c-0.238,0.263-0.627,0.782-0.785,1.034C22.563,42.526,22.314,42.9,22.253,43
	c-0.059,0.105-0.295,0.483-0.52,0.744c-0.222,0.257-0.324,0.31-0.345,0.465c-0.02,0.155,0.204,0.696,0.17,0.771
	c-0.035,0.076-0.135,0.458-0.146,0.661c-0.008,0.204-0.055,0.386-0.164,0.617c-0.111,0.23-0.152,0.378-0.143,0.558
	c0.009,0.184-0.073,0.355-0.217,0.442c-0.138,0.087-0.07,0.439-0.193,0.587c-0.122,0.151-0.28,0.017-0.335,0.158
	c-0.054,0.144,0.008,0.399,0.031,0.616c0.027,0.214-0.101,0.553-0.073,0.655c0.023,0.101,0.088,0.395,0.116,0.727
	c0.027,0.327,0.153,0.435,0.266,0.564c0.11,0.128,0.089,0.339,0.131,0.532c0.043,0.192,0.114,0.387,0.119,0.613
	c0.001,0.228,0.273,0.229,0.396,0.466c0.123,0.237-0.042,0.61-0.038,0.808c0.004,0.199,0.061,0.614,0.075,0.893
	c0.014,0.279,0.378,0.432,0.635,0.787c0.255,0.354,0.5,0.687,0.832,1.216c0.332,0.53,0.597,0.521,0.854,0.575
	c0.258,0.054,0.322-0.153,0.531-0.274c0.208-0.124,0.123,0.096,0.35,0.176c0.23,0.082,0.406,0.092,0.54,0.048
	c0.136-0.041,0.171-0.114,0.331-0.084c0.161,0.035,0.156,0.191,0.284,0.413c0.131,0.22,0.261,0.093,0.627,0.162
	c0.368,0.069,0.525,0.014,0.728-0.09c0.203-0.105,0.872-0.367,0.937-0.401c0.067-0.034,0.283-0.062,0.501-0.086
	c0.213-0.025,0.146,0.093,0.196,0.271c0.047,0.176,0.169-0.003,0.37,0.023c0.202,0.025,0.208-0.011,0.399,0.193
	c0.19,0.199,0.332,0.586,0.405,0.865c0.076,0.277,0.201,0.384,0.373,0.466c0.169,0.081,0.486-0.082,0.775-0.075
	c0.292,0.007,0.522-0.069,0.708,0.063c0.185,0.135,0.234,0.625,0.283,0.715c0.047,0.089,0.347,0.006,0.392,0.154
	c0.05,0.146-0.129,0.438-0.195,0.615c-0.066,0.177-0.029,0.443-0.036,0.648c-0.009,0.205-0.028,0.446-0.041,0.667
	c-0.014,0.223-0.014,0.25-0.239,0.368c-0.227,0.116-0.191,0.155-0.099,0.306c0.094,0.152,0.242,0.277,0.291,0.51
	c0.05,0.231-0.122,0.205-0.058,0.331c0.063,0.124,0.126,0.106,0.274,0.088c0.149-0.02,0.261,0.164,0.207,0.365
	c-0.053,0.199,0.158,0.306,0.265,0.491c0.115,0.185,0.249,0.172,0.53,0.241c0.277,0.071,0.459,0.251,0.558,0.527
	c0.101,0.277,0.003,0.258,0.109,0.46c0.105,0.202-0.003,0.358,0.011,0.465c0.014,0.107,0.158,0.222,0.295,0.379
	c0.14,0.156,0.097,0.179,0.097,0.351c0.003,0.172,0.116,0.111,0.179,0.236c0.064,0.123,0.157,0.39,0.064,0.511
	c-0.096,0.121-0.076,0.356,0.008,0.456c0.079,0.099,0.209,0.132,0.275,0.284c0.065,0.153,0.316,0.939,0.385,1.076
	c0.072,0.134,0.044,0.363-0.063,0.46c-0.104,0.099-0.425,0.307-0.503,0.55c-0.078,0.238-0.033,0.345,0.078,0.56
	c0.111,0.216-0.075,0.167-0.149,0.407c-0.076,0.241-0.104,0.242-0.076,0.481c0.023,0.245-0.032,0.277,0.132,0.764
	c0.167,0.487,0.368,0.398,0.578,0.616c0.216,0.22,0.087,0.328,0.156,0.466c0.07,0.134,0.455,0.491,0.85,0.976
	c0.393,0.483,0.256,0.438,0.239,0.578c-0.015,0.136,0.033,0.17,0.219,0.504c0.187,0.332,0.499,0.601,0.451,0.953
	c-0.047,0.354,0.127,0.277,0.244,0.578c0.11,0.298,0.647,0.622,0.971,0.91c0.322,0.293,0.476,0.427,0.816,0.938
	c0.336,0.514,0.628,0.635,0.736,0.736c0.109,0.103,0.055,0.157-0.083,0.172c-0.134,0.014-0.173,0.104-0.116,0.217
	c0.059,0.113,0.146,0.225,0.241,0.433c0.092,0.212,0.23,0.114,0.43,0.194c0.198,0.083,0.399,0.194,0.587,0.197
	c0.187,0.001,0.642-0.115,0.932-0.109c0.291,0.008,0.435,0.176,0.819,0.148c0.39-0.029,0.313-0.033,0.771,0.017
	c0.452,0.051,1.523-0.176,1.708-0.371c0.186-0.197,0.569-0.509,0.919-0.688c0.351-0.185,0.922-0.465,1.065-0.569
	c0.149-0.104,0.067-0.232,0.074-0.438c0.009-0.205,0.188-0.297,0.272-0.528c0.083-0.227,0.15-0.292,0.073-0.551
	c-0.079-0.262,0.178-0.179,0.409-0.341c0.231-0.165,0.923-0.321,1.115-0.42c0.191-0.103,0.163-0.103,0.076-0.271
	c-0.088-0.17,0.047-0.595,0.061-0.846c0.014-0.252-0.022-0.319-0.099-0.278c-0.079,0.042-0.143,0.003-0.266-0.321
	c-0.126-0.319-0.201-0.441-0.158-0.604c0.045-0.166,0.69-0.272,0.912-0.4c0.217-0.128,0.23-0.191,0.444-0.389
	c0.212-0.194,0.396-0.363,0.501-0.416c0.098-0.051,0.293-0.124,0.547-0.27c0.253-0.145,0.375-0.238,0.495-0.313
	c0.117-0.076,0.132,0.087,0.303,0c0.166-0.087,0.505-0.32,0.805-0.517c0.296-0.196,0.232-0.493,0.036-0.678
	s-0.186-0.246-0.157-0.547c0.031-0.302-0.007-0.239-0.074-0.252c-0.06-0.009-0.106-0.1-0.046-0.262
	c0.06-0.159,0.037-0.316-0.033-0.451c-0.071-0.137-0.103-0.308-0.102-0.522c0.003-0.217-0.161-0.374-0.3-0.473
	c-0.142-0.102-0.227-0.271-0.265-0.452c-0.035-0.181-0.29-0.094-0.372-0.253c-0.081-0.157-0.024-0.658,0.091-0.847
	c0.117-0.188-0.068-0.38-0.211-0.463c-0.144-0.086-0.115-0.47,0.052-0.785c0.167-0.314,0.386-0.417,0.6-0.558
	c0.214-0.138,0.463-0.566,0.628-0.668c0.163-0.099,0.304-0.326,0.281-0.59c-0.021-0.26,0.191-0.211,0.339-0.287
	c0.144-0.075,0.153-0.225,0.151-0.424c-0.005-0.197,0.066-0.149,0.286-0.275c0.22-0.131,0.518-0.412,0.634-0.631
	c0.119-0.216,0.497-0.427,0.856-0.644c0.36-0.215,0.488-0.464,0.504-0.604c0.016-0.137,0.176-0.348,0.521-0.429
	c0.349-0.077,0.737-0.35,0.898-0.591c0.159-0.242,0.38-0.699,0.58-1.063c0.199-0.36,0.571-0.779,0.479-1.12
	c-0.092-0.34,0.156-0.609,0.418-0.817c0.268-0.21,0.073-0.367,0.152-0.68c0.084-0.314,0.333-0.188,0.41-0.371
	c0.078-0.182-0.046-0.446-0.046-0.563c-0.003-0.111,0.35-0.284,0.438-0.342c0.084-0.058-0.028-0.244-0.154-0.292
	c-0.125-0.051-0.098-0.249-0.178-0.482c-0.075-0.23-0.275-0.23-0.434-0.118c-0.156,0.109-0.336,0.202-0.507,0.293
	c-0.168,0.087-0.257,0.104-0.384,0.196c-0.124,0.093-0.515,0.111-1.122,0.181c-0.608,0.071-1.489,0.113-1.949,0.194
	c-0.459,0.08-0.604-0.089-0.762-0.282c-0.154-0.191-0.094-0.435-0.128-0.748c-0.032-0.311-0.135-0.374-0.337-0.352
	c-0.208,0.02-0.284-0.185-0.467-0.533c-0.18-0.351-0.398-0.469-0.641-0.603c-0.239-0.131-0.784-0.108-0.954-0.16
	c-0.174-0.055-0.095-0.237-0.161-0.418c-0.063-0.183-0.18-0.71-0.259-1.028c-0.079-0.314-0.393-0.596-0.67-0.655
	c-0.273-0.06-0.277-0.485-0.254-0.827c0.024-0.341,0.059-0.631,0.035-0.733c-0.024-0.101-0.108-0.289-0.035-0.369
	c0.075-0.081-0.116-0.227-0.248-0.257c-0.13-0.035-0.049-0.403-0.132-0.563c-0.079-0.158-0.254-0.298-0.438-0.374
	c-0.183-0.077-0.417-0.116-0.516-0.25c-0.096-0.135,0.186-0.252,0.242-0.283c0.058-0.029-0.252-0.212-0.386-0.388
	c-0.135-0.173-0.173-0.196-0.273-0.302c-0.096-0.106-0.076-0.146-0.116-0.311c-0.042-0.166,0.015-0.166-0.088-0.359
	c-0.097-0.191-0.037-0.264-0.126-0.492c-0.085-0.225-0.163-0.314-0.219-0.398c-0.06-0.085-0.125-0.268-0.183-0.52
	c-0.062-0.257-0.199-0.329-0.301-0.39c-0.106-0.061-0.253-0.459-0.366-0.626c-0.119-0.168-0.062-0.257,0.051-0.143
	c0.117,0.109,0.163,0.117,0.407,0.231c0.246,0.119,0.107,0.205,0.236,0.482c0.125,0.275,0.255,0.167,0.378,0.102
	c0.126-0.064,0.017-0.551,0.096-0.736c0.078-0.181,0.258-0.161,0.225-0.003c-0.03,0.161-0.204,0.293-0.091,0.566
	c0.109,0.269,0.356,0.415,0.629,0.748c0.271,0.332,0.711,0.576,0.879,1.062c0.165,0.486-0.025,0.672,0.085,0.889
	c0.111,0.213,0.418,0.084,0.704,0.22c0.285,0.139,0.145,0.225,0.207,0.396c0.055,0.169,0.234,0.207,0.32,0.404
	c0.091,0.199-0.17,0.719-0.058,1.075c0.115,0.359,0.391,0.618,0.723,0.844c0.334,0.229,0.791,0.894,0.887,1.046
	c0.092,0.152,0.329,0.444,0.434,0.778c0.1,0.334,0.541,0.805,0.621,1.01c0.073,0.203-0.189,0.053-0.244,0.053
	c-0.058,0.004-0.168,0.401-0.086,0.586c0.084,0.188,0.279,0.345,0.461,0.609c0.182,0.266,0.041,0.552,0.221,0.789
	c0.18,0.232,0.398,0.135,0.712-0.011c0.31-0.147,0.494-0.344,0.663-0.431c0.17-0.089,0.512-0.009,0.789-0.135
	c0.276-0.131,0.551-0.315,0.849-0.356c0.294-0.038,0.378-0.181,0.609-0.344c0.228-0.16,0.523-0.314,0.844-0.465
	c0.322-0.153,0.727-0.234,0.872-0.309c0.149-0.076,0.261-0.221,0.375-0.494c0.118-0.275,0.221-0.214,0.399-0.307
	c0.182-0.094,0.204-0.106,0.3-0.143c0.097-0.035,0.174-0.104,0.41-0.255c0.238-0.151,0.529-0.116,0.721-0.242
	c0.191-0.129,0.058-0.245,0.462-0.354c0.401-0.107,0.241-0.11,0.209-0.34c-0.029-0.225-0.035-0.265,0.138-0.455
	c0.172-0.19,0.407,0.12,0.596,0.076c0.193-0.041,0.09-0.104,0.063-0.374c-0.025-0.272-0.206-0.596-0.321-0.765
	c-0.115-0.168-0.051-0.261,0.098-0.337c0.146-0.077,0.211,0.106,0.351,0.132c0.145,0.027,0.094-0.348,0.04-0.59
	c-0.054-0.248,0.163-0.345,0.259-0.608c0.092-0.263-0.008-0.266-0.195-0.514c-0.185-0.249-0.358-0.53-0.495-0.544
	c-0.138-0.018-1.107-0.203-1.182-0.264c-0.073-0.061-0.177-0.609-0.227-1.043c-0.052-0.43-0.385-0.272-0.532-0.168
	c-0.145,0.104-0.227,0.663-0.53,1.079c-0.301,0.412-0.601,0.109-0.839,0.173c-0.234,0.068-0.673,0.194-0.835,0.019
	c-0.16-0.174,0.083-0.257,0.097-0.535c0.011-0.279-0.217-0.335-0.409-0.206c-0.191,0.128-0.252,0.374-0.363,0.374
	c-0.114,0-0.114-0.382,0.067-0.478c0.182-0.093,0.066-0.179-0.033-0.368c-0.102-0.193-0.172,0.001-0.372-0.083
	c-0.2-0.082,0.09-0.132,0.019-0.294c-0.073-0.163-0.178-0.208-0.384-0.216c-0.204-0.009-0.137-0.129-0.271-0.418
	c-0.137-0.288-0.121-0.208-0.389-0.415c-0.265-0.207-0.293-0.319-0.412-0.546c-0.117-0.226-0.083-0.243,0.026-0.226
	c0.107,0.013,0.318-0.05,0.279-0.157c-0.044-0.11,0.056-0.39,0.264-0.313c0.216,0.076-0.01,0.251,0.088,0.357
	c0.096,0.106,0.355-0.14,0.572-0.053c0.215,0.087,0.163,0.371,0.313,0.683c0.144,0.312,0.235,0.624,0.367,0.771
	c0.132,0.144,0.319,0.061,0.56,0.195c0.242,0.134,0.335,0.342,0.589,0.414c0.249,0.07,0.636,0.041,0.926,0.019
	c0.29-0.019,0.427-0.391,0.621-0.405c0.191-0.013,0.44,0.216,0.575,0.503c0.131,0.288,0.481,0.295,0.721,0.371
	c0.24,0.075,0.325,0.02,0.622,0.123s0.819,0.146,1.168,0.123c0.349-0.02,0.302-0.186,0.518-0.295
	c0.215-0.112,0.501-0.143,0.768-0.126c0.265,0.02,0.344-0.02,0.627-0.082c0.287-0.061,0.681-0.237,0.821-0.212
	c0.144,0.029,0.241,0.267,0.325,0.351c0.09,0.085,0.176,0.065,0.214,0.132c0.033,0.068,0.259,0.337,0.453,0.439
	c0.195,0.097,0.314,0.137,0.509,0.235c0.197,0.097,0.1,0.078,0.253,0.183c0.156,0.106,0.43-0.163,0.541-0.121
	c0.109,0.044-0.079,0.182-0.235,0.408c-0.153,0.223-0.073,0.296-0.021,0.371c0.054,0.072,0.314,0.081,0.441,0.184
	c0.126,0.108,0.129,0.221,0.299,0.279c0.169,0.053,0.186-0.17,0.246-0.33c0.059-0.161,0.188-0.082,0.272-0.242
	c0.091-0.161-0.071-0.392-0.164-0.515c-0.091-0.126,0.123-0.122,0.223-0.099c0.096,0.021,0.082,0.327,0.127,0.445
	c0.051,0.12-0.058,0.275-0.051,0.401c0.007,0.123,0.136,0.258,0.201,0.498c0.067,0.235,0.218,0.775,0.301,1.274
	c0.09,0.5,0.297,0.678,0.377,0.838c0.083,0.158,0.113,0.384,0.207,0.563c0.093,0.179,0.268,0.292,0.377,0.565
	c0.114,0.27,0.379,0.447,0.508,0.753c0.13,0.307,0.183,0.492,0.306,0.731c0.124,0.235,0.345,0.666,0.563,0.924
	c0.221,0.26,0.476,0.643,0.517,0.832c0.045,0.194,0.27,0.408,0.411,0.679c0.141,0.271,0.319,0.093,0.454,0.022
	c0.135-0.071,0.042-0.252,0.146-0.492c0.106-0.239,0.142-0.058,0.215-0.194c0.072-0.138,0.229-0.246,0.152-0.396
	c-0.075-0.146-0.053-0.348,0.089-0.521c0.141-0.172,0.181-0.09,0.202-0.248c0.02-0.153-0.108-0.343-0.189-0.531
	c-0.084-0.185,0.161-0.598,0.143-0.716c-0.017-0.12-0.038-0.38-0.048-0.563c-0.008-0.183,0.037-0.319-0.053-0.461
	c-0.086-0.14-0.075-0.146-0.061-0.397c0.016-0.25-0.058-0.442-0.054-0.575c0.005-0.129,0.2-0.331,0.335-0.571
	c0.129-0.242,0.144-0.491,0.141-0.634c0-0.141,0.18-0.148,0.253-0.204c0.076-0.052,0.112-0.229,0.134-0.382
	c0.02-0.155,0.227-0.447,0.269-0.612c0.045-0.164,0.086-0.332,0.137-0.485c0.05-0.155,0.175-0.248,0.108-0.342
	c-0.063-0.096-0.121-0.21-0.017-0.224c0.108-0.012,0.189,0.061,0.176-0.103c-0.012-0.164,0.134-0.211,0.099-0.423
	c-0.04-0.21-0.018-0.363-0.04-0.624c-0.019-0.261,0.158-0.312,0.246-0.33c0.092-0.017,0.046-0.108,0.145-0.272
	c0.102-0.169,0.175-0.107,0.219-0.217c0.045-0.106,0.293-0.292,0.432-0.406c0.142-0.117,0.143,0.109,0.215,0.272
	c0.071,0.166,0.131-0.052,0.296-0.009c0.166,0.046,0.314,0.467,0.424,0.6c0.11,0.129,0.111-0.116,0.226-0.063
	c0.113,0.056,0.062,0.284,0.151,0.425c0.085,0.14,0.156,0.163,0.259,0.365c0.105,0.204,0.114,0.112,0.201,0.112
	c0.085-0.002,0.21,0.292,0.292,0.506c0.082,0.216,0.081,0.932,0.202,1.196c0.125,0.268,0.199,0.385,0.398,0.326
	c0.199-0.058,0.076-0.354,0.074-0.525c-0.004-0.17,0.152-0.309,0.124-0.422c-0.031-0.113,0.075-0.325,0.191-0.156
	c0.113,0.17,0.304,0.918,0.367,1.07c0.065,0.152,0.396,0.411,0.391,0.728c-0.004,0.318,0.063,0.642,0.238,0.792
	c0.18,0.153,0.215,0.39,0.267,0.821c0.054,0.433,0.023,0.733-0.072,0.795c-0.096,0.065-0.168,0.291-0.086,0.447
	c0.084,0.158,0.347,0.506,0.467,0.791c0.118,0.284,0.271,0.275,0.418,0.557c0.145,0.284,0.119,0.784,0.19,1.004
	c0.069,0.221,0.374,1.054,0.659,1.36c0.291,0.309,0.238-0.205,0.24-0.338c0.005-0.132-0.145-0.642-0.215-0.834
	c-0.07-0.191-0.006-0.642,0.039-0.836c0.043-0.194-0.077-0.261-0.207-0.424c-0.126-0.164-0.148-0.237-0.246-0.475
	c-0.091-0.236-0.151-0.046-0.284-0.108c-0.131-0.061-0.169-0.439-0.198-0.601c-0.022-0.156-0.156-0.418-0.259-0.64
	c-0.097-0.22-0.087,0.02-0.201,0.08c-0.112,0.058-0.063-0.228-0.081-0.461c-0.02-0.233,0.08-0.456,0.117-0.634
	c0.037-0.177,0.019-0.322-0.053-0.458c-0.07-0.138-0.046-0.421-0.06-0.616c-0.014-0.191-0.153-0.491-0.053-0.57
	c0.1-0.085,0.093,0.209,0.208,0.262c0.112,0.056,0.189-0.127,0.208-0.065c0.019,0.063,0.216,0.833,0.473,0.944
	c0.259,0.111,0.28,0.043,0.374,0.224c0.095,0.18-0.006,0.817,0.054,0.989c0.061,0.168,0.12-0.134,0.181-0.54
	c0.065-0.404,0.106-0.542,0.023-0.84c-0.084-0.301,0.084-0.388,0.173-0.662c0.086-0.273,0.007-1.062-0.09-1.555
	c-0.1-0.494-0.447-1.272-0.817-1.911c-0.374-0.639-0.443-0.772-0.595-1.069c-0.152-0.292-0.221-0.586-0.306-0.888
	c-0.082-0.301-0.009-0.795-0.011-1.023c-0.003-0.228,0.16-0.242,0.257-0.021c0.102,0.22,0.188,0.749,0.178,1.083
	c-0.012,0.336,0.212,0.549,0.393,0.567c0.184,0.02,0.018-0.379-0.019-0.703c-0.041-0.324-0.35-0.98-0.462-1.195
	c-0.109-0.212,0.104-0.153,0.112-0.474c0.009-0.318-0.042-0.52-0.119-0.754c-0.079-0.229,0.103-0.079,0.128-0.249
	c0.028-0.174-0.1-1.11-0.14-1.376c-0.036-0.266-0.465-1.29-0.706-1.751c-0.239-0.465-0.84-1.899-0.983-2.287
	c-0.139-0.385-0.393-0.952-0.479-1.068c-0.088-0.112-0.72-0.643-0.912-0.845c-0.188-0.201-0.529-0.827-0.697-1.429
	c-0.164-0.599-0.185-0.303-0.544-0.391c-0.359-0.086-0.113,0.144-0.318-0.093C77.343,29.442,77.56,29.144,77.729,29.057z
	 M45.26,34.877c-0.045,0.073-0.067,0.126,0.021,0.204c0.092,0.076,0.121,0.131-0.103,0.187c-0.227,0.056-0.486,0.089-0.724,0.109
	c-0.235,0.019-0.371,0.037-0.371,0.037c-0.091-0.001,0.034-0.14,0.248-0.156c0.214-0.02,0.271-0.027,0.436-0.205
	c0.164-0.177,0.31-0.08,0.389-0.14C45.236,34.85,45.305,34.804,45.26,34.877z M35.432,52.872c-0.069,0.087-0.247,0.2-0.386,0.282
	c-0.139,0.083-0.336,0.142-0.336,0.142c-0.111-0.042-0.16-0.069-0.19-0.228c-0.03-0.157,0.096-0.214-0.055-0.308
	c-0.152-0.098-0.17-0.054-0.161-0.287c0.015-0.231,0.004-0.369,0.096-0.395c0.086-0.025,0.105,0.048,0.16,0.019
	c0.056-0.029,0.128-0.21,0.229-0.089c0.106,0.121,0.12,0.225,0.181,0.347c0.062,0.121,0.234,0.176,0.332,0.246
	C35.401,52.676,35.5,52.788,35.432,52.872z M48.159,62.524c0.026,0.144-0.179,0.306-0.193,0.476
	c-0.015,0.174-0.13,0.284-0.099,0.443c0.032,0.156,0.053,0.259,0.12,0.366c0.065,0.11,0.02,0.143-0.061,0.146
	c-0.081,0-0.154-0.085-0.185,0.052c-0.03,0.139-0.094,0.315-0.149,0.213c-0.054-0.108-0.035-0.31-0.148-0.333
	c-0.118-0.022-0.208,0.033-0.333,0.09c-0.125,0.055-0.158,0.052-0.227,0.117c-0.067,0.067-0.12,0.064-0.12,0.064
	c-0.087-0.11-0.044-0.203-0.128-0.487c-0.085-0.284-0.024-0.497-0.101-0.645l-0.156-0.308c-0.037-0.063,0.118-0.102,0.142-0.176
	c0.024-0.073,0.132-0.179,0.217-0.193c0.085-0.014,0.26-0.055,0.463-0.148c0.207-0.096,0.505,0.025,0.665,0.036
	C48.024,62.244,48.137,62.384,48.159,62.524z M50.288,31.547c-0.081,0.043-0.312,0.111-0.421,0.178
	c-0.108,0.067-0.177,0.091-0.108,0.167c0.072,0.076,0.124,0.163,0.078,0.188c-0.05,0.025-0.018,0.202-0.018,0.202
	s-0.067,0.067-0.16,0.032c-0.088-0.036-0.155-0.103-0.221,0.003c-0.068,0.106-0.211,0.208-0.027,0.248
	c0.186,0.038,0.572,0.116,0.793,0.326c0.225,0.213,0.332,0.38,0.445,0.545c0.116,0.166,0.47,0.119,0.719,0.357
	c0.247,0.24,0.369,0.636,0.312,0.798c-0.06,0.164-0.354,0.347-0.578,0.309c-0.222-0.037-0.193-0.135-0.421-0.045
	c-0.231,0.088-0.418,0.143-0.713,0.091c-0.291-0.053-0.467-0.217-0.742-0.332c-0.275-0.114-0.868-0.214-1.084-0.237
	c-0.215-0.021-0.655-0.078-0.848-0.04c-0.196,0.037-0.294,0.008-0.421,0.155c-0.128,0.148-0.357,0.205-0.678,0.231
	c-0.326,0.022-0.614,0.061-0.742,0.053c-0.123-0.006-0.161,0.021-0.198-0.132c-0.041-0.152-0.024-0.222-0.094-0.237
	c-0.068-0.013-0.118-0.072-0.118-0.072c0.014-0.17,0.146-0.411,0.105-0.525c-0.037-0.114,0.25-0.541,0.326-0.693
	c0.078-0.15,0.373-0.527,0.487-0.637c0.118-0.112,0.263-0.169,0.414-0.276c0.146-0.106,0.215-0.151,0.304-0.321
	c0.085-0.167,0.271-0.251,0.404-0.301c0.137-0.053,0.447,0.096,0.498,0.17c0.051,0.077,0.071,0.199-0.032,0.272
	c-0.104,0.076-0.252,0.206-0.117,0.268c0.135,0.063,0.321,0.008,0.396,0.03c0.072,0.023,0.067,0.169,0.072,0.259
	c0.004,0.089,0.024,0.305,0.197,0.205c0.174-0.1,0.279-0.175,0.498-0.186c0.221-0.01,0.568,0.052,0.576-0.053
	c0.008-0.106,0.042-0.255-0.096-0.258c-0.129-0.003-0.357,0.114-0.421-0.006c-0.061-0.122-0.144-0.067-0.308-0.106
	c-0.161-0.037-0.157-0.308-0.026-0.367c0.132-0.058,0.373,0.088,0.566-0.035c0.19-0.121,0.321-0.167,0.378-0.174
	c0.056-0.009,0.248-0.037,0.426-0.149c0.176-0.112,0.403-0.167,0.523-0.109C50.332,31.4,50.37,31.508,50.288,31.547z M56.891,31.228
	c0.034,0.167-0.153,0.274-0.086,0.446c0.066,0.169,0.144,0.18,0.236,0.236c0.087,0.053,0.099,0.214-0.026,0.205
	c-0.127-0.005-0.11-0.013-0.214-0.072c-0.103-0.06-0.178-0.165-0.166-0.126c0.007,0.035,0.021,0.161-0.09,0.199
	c-0.117,0.038-0.34-0.02-0.287,0.046c0.054,0.063,0.215,0.115,0.167,0.188c-0.042,0.073-0.125,0.148-0.231,0.181
	c-0.104,0.032-0.297,0.175-0.011,0.335c0.287,0.158,0.383,0.149,0.53,0.432c0.149,0.279,0.116,0.358,0.328,0.331
	c0.206-0.029,0.467-0.059,0.414,0.011c-0.057,0.07-0.287,0.097-0.278,0.195c0.008,0.096-0.068,0.302,0.058,0.541
	c0.125,0.242,0.246,0.202,0.317,0.164c0.072-0.038,0.131-0.079,0.064-0.208c-0.067-0.129-0.206-0.424-0.053-0.38
	c0.154,0.04,0.129,0.188,0.174,0.295c0.05,0.111,0.264,0.315,0.251,0.406c-0.017,0.09-0.03,0.157-0.193,0.12
	c-0.164-0.039-0.413-0.064-0.412,0.119c0.006,0.182,0.009,0.324,0.117,0.38c0.111,0.055,0.389,0.094,0.315,0.174
	c-0.073,0.078-0.242,0.044-0.18,0.227c0.063,0.182,0.206,0.119,0.353,0.308c0.152,0.188,0.134,0.28,0.201,0.581
	c0.064,0.304,0.154,0.441,0.219,0.483c0.061,0.037,0.241,0.211,0.229,0.309c-0.011,0.097-0.174,0.211-0.26,0.104
	c-0.089-0.109-0.262-0.284-0.356-0.234c-0.1,0.048-0.343,0.153-0.448,0.301c-0.107,0.149-0.197,0.215-0.339,0.073
	c-0.144-0.137-0.47-0.391-0.719-0.497c-0.251-0.104-0.356,0.104-0.497-0.11c-0.144-0.214-0.159-0.523-0.226-0.672
	c-0.067-0.149,0.008-0.34,0.113-0.374c0.104-0.035,0.195,0.122,0.279,0.048c0.083-0.073,0.038-0.152,0.118-0.246
	c0.086-0.094,0.213-0.14,0.174-0.22c-0.044-0.081-0.203-0.195-0.143-0.295c0.058-0.104,0.211-0.027,0.157-0.152
	c-0.059-0.128-0.129-0.251-0.282-0.265c-0.149-0.015-0.115,0.029-0.261-0.09c-0.142-0.122-0.069-0.211-0.222-0.234
	c-0.156-0.021-0.208,0.096-0.277-0.04c-0.072-0.136-0.04-0.235-0.227-0.363c-0.19-0.128-0.246-0.098-0.28-0.316
	c-0.029-0.219-0.093-0.38,0.007-0.441c0.104-0.065,0.073-0.174-0.055-0.167c-0.131,0.005-0.166,0.055-0.202,0.063
	c-0.037,0.009-0.069-0.014-0.069-0.014c-0.049-0.109,0.041-0.143,0.006-0.262c-0.027-0.117-0.198-0.129-0.277-0.284
	c-0.08-0.154-0.035-0.442,0.103-0.553c0.136-0.113,0.44-0.371,0.542-0.549c0.107-0.177,0.244-0.266,0.443-0.371
	c0.202-0.105,0.466-0.323,0.611-0.286c0.14,0.04,0.35,0.089,0.483,0.068C56.669,30.957,56.857,31.061,56.891,31.228z M66.539,29.627
	c-0.041,0.079-0.34,0.135-0.48,0.18c-0.143,0.045-0.2,0.126-0.339,0.165c-0.14,0.037-0.286,0.076-0.282,0.221
	c0.004,0.148-0.025,0.179,0.073,0.292c0.098,0.116,0.169,0.127,0.072,0.18c-0.102,0.05-0.223,0.009-0.223,0.009
	c-0.091-0.116-0.166-0.172-0.247-0.234c-0.081-0.063-0.102-0.134-0.069-0.236c0.04-0.102-0.021-0.163-0.054-0.225
	c-0.029-0.059,0.077-0.086,0.16-0.109c0.081-0.02,0.009-0.116,0.098-0.149c0.089-0.033,0.076,0.031,0.253,0.013
	c0.176-0.021,0.144-0.188,0.258-0.149c0.114,0.039,0.266,0.224,0.447,0.065c0.183-0.16,0.149-0.306,0.253-0.225
	C66.561,29.504,66.586,29.552,66.539,29.627z M70.337,24.008c0.128,0.163,0.422,0.771,0.459,0.962
	c0.033,0.193-0.337,0.006-0.337,0.006c-0.062-0.243-0.191-0.743-0.482-1.098c-0.289-0.356-1.193-1.046-0.789-1
	c0.396,0.046,0.917,0.598,1.064,0.796C70.395,23.875,70.209,23.842,70.337,24.008z"/>
<path fill="#27AAE1" stroke="#FFFFFF" stroke-miterlimit="10" d="M90.326,40.163c-0.043-0.114-1.684-4.055-12.504,6.512
	l-25.237-6.797l-3.893,2.796L69.334,53.75l-11.775,10.1l-7.25-2.265l-2.617,1.741l6.79,5.354l-0.013,0.009l3.732,7.839l2.278-2.166
	l-0.604-7.569l12.457-9.249l6.232,22.583l3.588-3.179L81.11,50.834C92.636,43.375,90.834,40.651,90.326,40.163z"/>
</svg>
