<?xml version="1.0" encoding="utf-8"?>
<!-- Generator: Adobe Illustrator 16.0.0, SVG Export Plug-In . SVG Version: 6.00 Build 0)  -->
<!DOCTYPE svg PUBLIC "-//W3C//DTD SVG 1.1//EN" "http://www.w3.org/Graphics/SVG/1.1/DTD/svg11.dtd">
<svg version="1.1" id="Layer_1" xmlns="http://www.w3.org/2000/svg" xmlns:xlink="http://www.w3.org/1999/xlink" x="0px" y="0px"
	 width="100px" height="100px" viewBox="0 0 100 100" enable-background="new 0 0 100 100" xml:space="preserve">
<circle fill="none" cx="50" cy="50" r="47.5"/>
<rect x="40.3" y="51.139" transform="matrix(0.7073 -0.7069 0.7069 0.7073 -24.6724 47.4069)" fill="#39C0C3" width="9.214" height="4.712"/>
<path fill="#FF6600" d="M60.824,56.121c-10.682,0-19.374-8.689-19.374-19.369c0-5.172,2.014-10.037,5.675-13.696
	c3.657-3.658,8.522-5.673,13.699-5.673c5.171,0,10.032,2.015,13.689,5.673c3.658,3.659,5.674,8.523,5.674,13.696
	C80.188,47.432,71.5,56.121,60.824,56.121z"/>
<path fill="#192B8B" d="M45.8,60.607l-7.966-7.969l-8.368,8.369c-0.005,0.002-0.008,0.004-0.01,0.007l-5.77,5.771l-1.273,1.275l0,0
	l-0.949,0.946c-2.201,2.202-2.201,5.771,0,7.97c2.203,2.201,5.769,2.198,7.97-0.002l2.222-2.223L45.8,60.607z"/>
<rect x="37.962" y="52.264" transform="matrix(-0.707 0.7072 -0.7072 -0.707 110.1463 70.1671)" fill="#39C0C3" width="5.153" height="11.271"/>
<path fill="#EDF8FE" d="M75.459,36.75c0,8.087-6.556,14.641-14.639,14.641c-8.089,0-14.64-6.554-14.64-14.641
	c0-8.083,6.551-14.637,14.64-14.637C68.903,22.113,75.459,28.667,75.459,36.75z"/>
<path fill="#DBD9DD" d="M49.961,45.235c5.484-7.851,13.865-12.696,22.921-15.169c-0.616-1.111-1.385-2.146-2.307-3.068
	c-2.607-2.607-6.07-4.042-9.754-4.042c-3.688,0-7.152,1.435-9.758,4.042c-2.607,2.606-4.043,6.07-4.043,9.755
	C47.021,39.952,48.126,42.893,49.961,45.235z"/>
</svg>
